<?xml version="1.0" encoding="UTF-8" standalone="no"?>
<!-- Uploaded to: SVG Repo, www.svgrepo.com, Generator: SVG Repo Mixer Tools -->

<svg
   fill="#000000"
   height="800.00232"
   width="330.80859"
   version="1.1"
   id="Capa_1"
   viewBox="0 0 155.00037 374.84109"
   xml:space="preserve"
   sodipodi:docname="f1-car.svg"
   inkscape:version="1.3.2 (091e20ef0f, 2023-11-25)"
   xmlns:inkscape="http://www.inkscape.org/namespaces/inkscape"
   xmlns:sodipodi="http://sodipodi.sourceforge.net/DTD/sodipodi-0.dtd"
   xmlns="http://www.w3.org/2000/svg"
   xmlns:svg="http://www.w3.org/2000/svg"><defs
   id="defs1" /><sodipodi:namedview
   id="namedview1"
   pagecolor="#505050"
   bordercolor="#eeeeee"
   borderopacity="1"
   inkscape:showpageshadow="0"
   inkscape:pageopacity="0"
   inkscape:pagecheckerboard="0"
   inkscape:deskcolor="#505050"
   showguides="true"
   inkscape:zoom="1.21125"
   inkscape:cx="-88.75129"
   inkscape:cy="394.22085"
   inkscape:window-width="2048"
   inkscape:window-height="1211"
   inkscape:window-x="0"
   inkscape:window-y="0"
   inkscape:window-maximized="1"
   inkscape:current-layer="Capa_1"><sodipodi:guide
     position="78.54984,374.80964"
     orientation="1,0"
     id="guide19"
     inkscape:locked="false" /></sodipodi:namedview>
<path
   id="path1"
   style="stroke-width:0.46855;stroke-dasharray:none"
   inkscape:label="path1"
   d="m 78.54984,0.03036681 c -1.47481,-0.08553099 -2.98356,0.0087597 -4.50156,0.29375889 -2.23297,0.41899874 -4.37619,1.2918959 -6.26319,2.556892 -5.134,3.4439898 -8.02313,8.9578013 -8.00013,14.8837833 l 9.2e-4,0.993839 H 14.6431 c -5.508,0 -9.97225,4.464347 -9.97225,9.971329 v 18.385097 c 0,5.507982 4.46525,9.972245 9.97225,9.972245 h 45.18213 c 0,0 0.0183,21.543316 0.0183,21.844313 L 43.00044,85.107882 V 73.21568 c 0,-6.143982 -4.98043,-11.124402 -11.1244,-11.124402 H 13.12397 c -6.14397,0 -11.12348,4.98042 -11.12348,11.124402 v 42.08531 c 0,6.14397 4.97951,11.1244 11.12348,11.1244 h 18.75207 c 6.14297,0 11.1244,-4.98043 11.1244,-11.1244 v -4.72394 l 14.82064,7.66152 c -1.326,12.50497 -3.3086,24.80587 -5.9246,36.84981 H 46.9401 c -13.47494,0 -24.72802,11.02267 -25.00702,24.49364 l -0.0769,3.72735 c -1.5,23.14694 0.49026,34.0618 5.37826,53.39274 1.10797,4.38397 2.4524,8.75671 3.9964,12.99768 l 17.41047,47.81681 -6.82875,7.93698 v -3.23866 c 0,-6.144 -4.9804,-11.12349 -11.1244,-11.12349 H 11.12437 c -6.144,0 -11.1244,4.97949 -11.1244,11.12349 v 42.08622 c 0,6.14397 4.9804,11.1244 11.1244,11.1244 h 19.56379 c 6.144,0 11.1244,-4.98043 11.1244,-11.1244 v -18.91771 l 11.9279,-13.86157 0.62503,1.71771 c 2.764,7.58997 9.07539,13.21076 16.63536,15.29376 v 9.10378 H 57.24909 c -5.50797,0 -9.97225,4.46519 -9.97225,9.97316 v 17.25765 c 0,5.50797 4.46528,9.97316 9.97225,9.97316 h 40.50304 c 5.50797,0 9.97224,-4.46519 9.97224,-9.97316 v -17.25765 c 0,-5.50797 -4.46527,-9.97316 -9.97224,-9.97316 H 84.00128 v -9.11018 c 7.53197,-2.085 13.82701,-7.68478 16.59601,-15.23978 l 0.65066,-1.77811 11.93979,13.87714 v 18.91679 c 0,6.14397 4.9804,11.1244 11.1244,11.1244 h 19.56379 c 6.143,0 11.1244,-4.98043 11.1244,-11.1244 v -42.08531 c 0,-6.14597 -4.9804,-11.12623 -11.1244,-11.12623 h -19.56285 c -6.14397,0 -11.12348,4.97949 -11.12348,11.12349 v 3.23866 l -6.81869,-7.92416 17.28144,-47.16158 c 1.583,-4.31897 2.95801,-8.77245 4.08701,-13.23745 4.96297,-19.62194 6.97314,-30.72407 5.34714,-54.42501 l -0.0659,-3.12336 c -0.282,-13.50597 -11.50089,-24.49364 -25.00886,-24.49364 h -4.91977 c -2.639,-12.04994 -4.64907,-24.27035 -6.00604,-36.60729 l 14.91489,-7.83357 v 4.65347 c 0,6.14397 4.98041,11.1244 11.12441,11.1244 h 18.75206 c 6.143,0 11.12349,-4.98043 11.12349,-11.1244 V 73.21568 c 0,-6.143982 -4.97949,-11.124402 -11.12349,-11.124402 h -18.75206 c -6.144,0 -11.12441,4.98042 -11.12441,11.124402 v 11.846445 l -17.0435,-6.355624 c 0,-0.225 0.0879,-21.61736 0.0879,-21.61736 h 45.313 c 5.50797,0 9.97224,-4.46526 9.97224,-9.972245 V 28.729969 c 0,-5.507982 -4.46527,-9.971329 -9.97224,-9.971329 H 95.21178 l 0.003,-0.465805 C 95.23578,13.50885 93.54481,8.8029248 90.21081,5.372935 87.09084,2.1629446 82.97457,0.28695978 78.55014,0.03036681 Z M 77.50018,12.999684 c 1.263,0 2.44919,0.49235 3.34116,1.387347 0.891,0.895 1.37854,2.082998 1.37454,3.342995 l -0.26173,60.248941 c -0.112,28.492913 3.04541,56.722293 9.37741,84.067203 -4.163,-2.099 -8.85949,-3.28809 -13.83046,-3.28809 -4.975,0 -9.67373,1.19158 -13.8387,3.29358 6.20597,-26.95591 9.29839,-55.18348 9.18339,-84.05439 l -0.0613,-60.265414 c -0.004,-1.261997 0.48354,-2.450825 1.37454,-3.344825 0.89197,-0.894997 2.07816,-1.387347 3.34116,-1.387347 z M 17.67037,31.758157 h 42.12924 l 0.0128,12.330552 H 17.67036 Z m 77.48463,0 h 42.17499 V 44.088709 H 95.101 Z m 0.0503,60.914245 13.48362,5.028676 -12.85584,6.752792 c -0.274,-3.919 -0.48278,-7.84648 -0.62778,-11.781468 z m -35.60339,0.194924 c -0.136,3.800988 -0.32912,7.585934 -0.58112,11.355934 L 46.41021,97.705654 Z M 46.93916,168.0879 h 1.86505 c -0.051,0.196 -0.90141,3.46013 -0.90141,3.46013 -1.546,5.905 -1.98665,11.97595 -1.30865,18.04192 l 6.4023,57.25736 c 1.397,12.49397 11.93073,21.9157 24.5037,21.9157 12.57197,0 23.10579,-9.42173 24.50279,-21.9157 l 6.40229,-57.25736 c 0.678,-6.06597 0.2365,-12.13686 -1.31047,-18.04283 0,0 -0.8495,-3.26222 -0.9005,-3.45922 h 1.81563 c 6.488,0 11.87617,5.27858 12.01117,11.76958 l 0.0842,3.59008 c 1.52297,22.03391 -0.24903,31.82747 -4.97103,50.49541 -1.02,4.031 -2.26083,8.05452 -3.68983,11.95352 L 96.59356,286.42515 H 58.43602 l -14.99085,-41.172 c -1.392,-3.829 -2.60739,-7.77766 -3.60839,-11.73663 -4.64897,-18.38594 -6.40239,-28.01241 -4.99939,-49.50432 l 0.0915,-4.16022 c 0.134,-6.48597 5.52129,-11.76408 12.01026,-11.76408 z m 15.55275,46.67014 h 30.01831 l -3.42627,30.64427 c -0.66,5.907 -5.63991,10.36118 -11.58288,10.36118 -5.943,0 -10.92289,-4.45418 -11.58289,-10.36118 z m -2.21555,135.87859 h 34.44758 v 11.20219 H 60.27636 Z" />
<path
   style="fill:#b77718;fill-opacity:1;stroke:#b77718;stroke-width:0.9371;stroke-linecap:square;stroke-dasharray:none;stroke-opacity:1"
   d="m 58.362438,285.58144 c -0.147696,-0.37432 -3.823242,-10.4609 -8.167881,-22.41462 -8.220934,-22.61885 -9.600397,-26.88981 -11.908854,-36.87097 -3.531574,-15.26961 -4.231784,-24.01882 -3.363519,-42.02773 0.281079,-5.83 0.435494,-6.88537 1.27604,-8.72136 1.967872,-4.29841 5.398164,-6.75824 10.007328,-7.17619 2.393513,-0.21703 2.402345,-0.21409 2.135665,0.71166 -1.194784,4.14755 -1.84128,8.1901 -2.035484,12.72796 -0.20672,4.83025 0.0268,7.45799 3.11113,35.00828 1.83404,16.38232 3.585307,31.0614 3.891696,32.62017 0.902376,4.59086 2.948192,8.24038 6.774207,12.08446 5.066919,5.09085 10.359111,7.31281 17.417414,7.31281 7.045385,0 12.331838,-2.21919 17.429226,-7.31658 3.830851,-3.83085 5.849734,-7.43748 6.762394,-12.08069 0.30639,-1.55877 2.05766,-16.23785 3.8917,-32.62017 3.08432,-27.55029 3.31785,-30.17803 3.11113,-35.00828 -0.1933,-4.51652 -0.84908,-8.62937 -2.02,-12.66874 -0.23129,-0.7979 -0.12554,-0.87037 1.26993,-0.87037 4.35516,0 8.5767,2.67023 10.52322,6.65621 1.15474,2.3646 1.20137,2.6726 1.62754,10.75122 0.49224,9.33117 0.25034,20.21208 -0.58479,26.30456 -1.201,8.76159 -4.77586,23.80406 -7.53836,31.72021 -0.85382,2.44671 -4.68155,12.9782 -8.50606,23.40332 l -6.953652,18.95476 -18.94074,0.10033 c -17.771197,0.0941 -18.957327,0.0583 -19.20928,-0.58025 z"
   id="path6" /><path
   style="fill:#b77718;fill-opacity:1;stroke:#b77718;stroke-width:0.9371;stroke-linecap:square;stroke-dasharray:none;stroke-opacity:1"
   d="m 64.116991,160.99903 c 1.205401,-4.0461 4.727393,-24.31494 5.995861,-34.50578 2.431522,-19.53475 2.737349,-27.443657 2.741603,-70.899355 0.0042,-42.078309 -0.107987,-40.130823 2.398166,-41.658782 1.62018,-0.987799 2.874549,-0.988037 4.493717,-8.44e-4 2.455362,1.496997 2.363517,-0.117684 2.122893,37.320202 -0.267884,41.678881 0.169273,53.238869 2.80869,74.271709 1.361437,10.84895 4.924071,31.22086 6.203485,35.47286 0.173335,0.57607 -0.08182,0.5443 -2.049077,-0.25506 -6.88523,-2.79772 -15.779068,-2.79772 -22.664298,0 -1.967793,0.79958 -2.222707,0.83129 -2.05104,0.25506 z"
   id="path7" /><path
   style="fill:#b77718;fill-opacity:1;stroke:#b77718;stroke-width:0.9371;stroke-linecap:square;stroke-dasharray:none;stroke-opacity:1"
   d="M 17.928086,38.102183 V 32.10629 h 20.888915 20.888915 v 5.995893 5.995893 H 38.817001 17.928086 Z"
   id="path8" /><path
   style="fill:#b77718;fill-opacity:1;stroke:#b77718;stroke-width:0.9371;stroke-linecap:square;stroke-dasharray:none;stroke-opacity:1"
   d="M 95.294444,38.102183 V 32.10629 h 20.888916 20.88891 v 5.995893 5.995893 H 116.18336 95.294444 Z"
   id="path9" /><path
   style="fill:#b77718;fill-opacity:1;stroke:#b77718;stroke-width:0.9371;stroke-linecap:square;stroke-dasharray:none;stroke-opacity:1"
   d="m 60.479581,356.27133 v -5.41565 H 77.50018 94.520779 v 5.41565 5.41564 H 77.50018 60.479581 Z"
   id="path10" /><path
   style="fill:#b77718;fill-opacity:1;stroke:#b77718;stroke-width:0.9371;stroke-linecap:square;stroke-dasharray:none;stroke-opacity:1"
   d="m 75.076474,255.29256 c -2.209729,-0.54851 -4.191386,-1.69287 -5.777381,-3.33633 -2.653202,-2.74934 -2.859654,-3.64493 -4.759503,-20.64702 -0.95646,-8.55952 -1.739018,-15.71323 -1.739018,-15.89712 0,-0.1839 6.614825,-0.33436 14.699608,-0.33436 8.084783,0 14.699608,0.15046 14.699608,0.33436 0,0.18389 -0.781466,7.32785 -1.736596,15.87546 -1.92352,17.21392 -2.129382,18.07946 -4.95873,20.84904 -2.755084,2.69688 -7.0459,3.99547 -10.427988,3.15597 z"
   id="path11" /><g
   id="g19"
   transform="matrix(0.00712802,0,0,0.00712802,56.97444,164.26819)"><g
     id="layer101"
     fill="#0bbd0b"
     stroke="none"><path
       d="m 2050,4059 c -270,-29 -493,-254 -519,-524 -23,-229 79,-441 272,-566 88,-57 165,-80 287,-86 187,-9 315,40 445,171 124,124 175,247 175,416 0,359 -301,627 -660,589 z m 185,-154 c 219,-57 365,-283 327,-505 -60,-353 -483,-500 -744,-260 -227,207 -186,566 82,723 94,54 223,71 335,42 z"
       id="path1-3" /></g><g
     id="layer102"
     fill="#0891f8"
     stroke="none"><path
       d="m 2208,4290 c -239,-38 -442,-143 -605,-313 -134,-140 -211,-278 -265,-474 -18,-64 -21,-107 -22,-243 -1,-142 2,-177 23,-254 50,-191 126,-328 260,-468 219,-229 496,-341 805,-325 266,14 499,118 687,306 122,122 200,246 253,406 191,569 -146,1189 -729,1340 -112,29 -306,41 -407,25 z m 312,-151 c 327,-59 606,-314 700,-639 31,-107 38,-307 15,-421 -55,-273 -233,-507 -480,-631 -137,-69 -337,-106 -486,-89 -126,14 -202,36 -314,91 -371,179 -570,594 -479,1000 18,82 54,180 65,180 5,0 9,6 9,13 0,24 58,133 103,192 46,61 126,127 207,172 25,13 63,35 85,49 60,36 215,83 308,93 88,9 179,6 267,-10 z"
       id="path2" /></g><g
     id="layer103"
     fill="#082693"
     stroke="none"><path
       d="m 1220,5730 c 0,-46 2,-50 24,-50 14,0 38,-11 53,-24 l 28,-24 3,-262 4,-261 61,3 62,3 3,255 c 2,214 0,262 -13,297 -28,72 -96,113 -187,113 h -38 z"
       id="path3" /><path
       d="m 1644,5632 c -45,-28 -73,-73 -86,-136 -28,-133 50,-256 162,-256 35,0 105,33 113,52 3,7 6,-33 6,-89 l 1,-103 h 65 65 v 270 270 h -65 c -59,0 -65,-2 -65,-21 0,-20 0,-20 -32,2 -44,32 -123,37 -164,11 z m 171,-97 c 22,-21 25,-33 25,-90 0,-57 -3,-69 -25,-90 -31,-32 -66,-32 -102,-1 -25,22 -28,30 -28,89 0,55 4,69 24,91 32,34 74,34 106,1 z"
       id="path4" /><path
       d="m 2173,5634 c -129,-48 -165,-234 -64,-335 82,-83 240,-78 314,10 29,35 47,88 47,139 v 32 h -145 c -160,0 -167,3 -121,57 22,25 30,28 88,27 41,0 79,-8 111,-22 l 47,-21 v 48 c 0,46 -1,48 -37,60 -63,20 -192,23 -240,5 z m 167,-248 c 0,-8 -8,-24 -19,-37 -27,-34 -86,-32 -117,5 -13,15 -24,31 -24,37 0,5 36,9 80,9 62,0 80,-3 80,-14 z"
       id="path5" /><path
       d="m 3225,5635 c -130,-46 -168,-235 -66,-336 107,-107 322,-62 360,76 51,185 -108,326 -294,260 z m 146,-101 c 20,-22 24,-36 24,-89 0,-53 -4,-67 -24,-89 -16,-17 -35,-26 -56,-26 -21,0 -40,9 -56,26 -20,22 -24,36 -24,89 0,53 4,67 24,89 16,17 35,26 56,26 21,0 40,-9 56,-26 z"
       id="path6-6" /><path
       d="m 3795,5634 c -16,-8 -38,-23 -47,-31 -17,-15 -18,-14 -18,10 0,26 -2,27 -60,27 h -60 v -270 -270 h 60 60 v 101 100 l 37,-28 c 48,-36 135,-40 180,-7 113,84 102,307 -17,369 -37,19 -97,19 -135,-1 z m 76,-100 c 20,-22 24,-36 24,-91 0,-59 -3,-67 -28,-89 -52,-45 -111,-21 -127,51 -26,114 63,202 131,129 z"
       id="path7-7" /><path
       d="m 4215,5635 c -130,-46 -168,-235 -66,-336 107,-107 322,-62 360,76 51,185 -108,326 -294,260 z m 146,-101 c 20,-22 24,-36 24,-89 0,-53 -4,-67 -24,-89 -16,-17 -35,-26 -56,-26 -21,0 -40,9 -56,26 -20,22 -24,36 -24,89 0,53 4,67 24,89 16,17 35,26 56,26 21,0 40,-9 56,-26 z"
       id="path8-5" /><path
       d="m 2580,5380 v -260 h 133 c 182,1 235,22 259,102 16,53 -2,109 -46,145 l -34,27 24,19 c 20,16 124,202 124,222 0,3 -30,5 -67,3 l -68,-3 -42,-80 c -47,-91 -72,-115 -119,-115 h -33 l -3,98 -3,97 -62,3 -63,3 z m 245,-50 c 9,-7 15,-29 15,-51 0,-46 -18,-59 -84,-59 h -46 v 66 67 l 50,-5 c 27,-3 56,-11 65,-18 z"
       id="path9-3" /><path
       d="m 4670,5627 c -44,-22 -60,-70 -60,-184 v -103 h -30 c -29,0 -30,-2 -30,-45 0,-43 1,-45 30,-45 30,0 30,-1 30,-55 v -55 h 65 65 v 55 55 h 60 60 v 45 45 h -60 -61 l 3,103 3,102 53,3 52,3 v 45 44 h -77 c -43,0 -89,-6 -103,-13 z"
       id="path10-5" /></g><g
     id="layer104"
     fill="#ffa500"
     stroke="none"><path
       d="m 2540,4563 c -193,-19 -403,-79 -580,-165 -69,-34 -131,-62 -138,-64 -18,-4 -134,-98 -230,-189 -95,-89 -220,-241 -301,-365 -75,-115 -168,-299 -174,-346 -3,-22 -15,-84 -28,-139 -21,-89 -24,-124 -23,-315 0,-197 2,-224 26,-325 99,-413 323,-737 674,-974 385,-260 878,-345 1338,-231 520,128 944,499 1131,989 68,179 96,338 96,546 1,399 -142,760 -416,1055 -271,293 -632,473 -1040,520 -85,9 -257,11 -335,3 z m 325,-148 c 221,-18 480,-113 690,-252 126,-84 307,-264 388,-384 108,-163 181,-336 223,-529 14,-66 19,-127 18,-270 0,-164 -3,-198 -26,-296 -68,-289 -202,-521 -418,-727 -459,-436 -1160,-538 -1730,-252 -404,203 -686,565 -782,1003 -31,141 -31,405 0,549 62,285 216,569 408,754 141,135 377,271 583,338 213,69 388,87 646,66 z"
       id="path11-6" /></g><g
     id="layer105"
     fill="#ff0000"
     stroke="none"><path
       d="M 2845,4853 C 2495,4830 2103,4696 1802,4496 1277,4147 939,3613 843,2980 c -23,-157 -23,-454 0,-608 74,-475 281,-892 607,-1222 327,-330 719,-536 1185,-622 158,-29 554,-32 705,-5 491,86 908,305 1239,652 558,586 745,1419 489,2190 -214,648 -719,1157 -1363,1374 -285,96 -568,133 -860,114 z m 491,-166 c 344,-65 633,-190 893,-385 103,-78 278,-248 360,-351 382,-480 528,-1087 406,-1683 C 4760,1117 3600,407 2460,716 c -484,131 -920,459 -1192,896 -148,238 -251,535 -287,828 -16,122 -13,371 4,502 36,272 125,534 259,762 317,538 850,895 1478,991 123,19 499,14 614,-8 z"
       id="path12" /></g></g></svg>
