<?xml version="1.0" encoding="UTF-8" standalone="no"?>
<!-- Uploaded to: SVG Repo, www.svgrepo.com, Generator: SVG Repo Mixer Tools -->

<svg
   fill="#000000"
   height="800px"
   width="800px"
   version="1.1"
   id="Capa_1"
   viewBox="0 0 374.84 374.84"
   xml:space="preserve"
   sodipodi:docname="f1-car-svgrepo-com.svg"
   inkscape:version="1.3.2 (091e20ef0f, 2023-11-25)"
   xmlns:inkscape="http://www.inkscape.org/namespaces/inkscape"
   xmlns:sodipodi="http://sodipodi.sourceforge.net/DTD/sodipodi-0.dtd"
   xmlns="http://www.w3.org/2000/svg"
   xmlns:svg="http://www.w3.org/2000/svg"><defs
   id="defs1" /><sodipodi:namedview
   id="namedview1"
   pagecolor="#505050"
   bordercolor="#eeeeee"
   borderopacity="1"
   inkscape:showpageshadow="0"
   inkscape:pageopacity="0"
   inkscape:pagecheckerboard="0"
   inkscape:deskcolor="#505050"
   showguides="true"
   inkscape:zoom="1.21125"
   inkscape:cx="145.71723"
   inkscape:cy="262.1259"
   inkscape:window-width="2048"
   inkscape:window-height="1211"
   inkscape:window-x="0"
   inkscape:window-y="0"
   inkscape:window-maximized="1"
   inkscape:current-layer="Capa_1"><sodipodi:guide
     position="188.46966,374.80889"
     orientation="1,0"
     id="guide19"
     inkscape:locked="false" /></sodipodi:namedview>
<path
   id="path1"
   style="stroke-width:0.46855;stroke-dasharray:none"
   inkscape:label="path1"
   d="M 188.46966 0.031114648 C 186.99485 -0.054416344 185.4861 0.03987438 183.9681 0.32487354 C 181.73513 0.74387228 179.59191 1.6167694 177.70491 2.8817655 C 172.57091 6.3257553 169.68178 11.839567 169.70478 17.765549 L 169.7057 18.759388 L 124.56292 18.759388 C 119.05492 18.759388 114.59067 23.223735 114.59067 28.730717 L 114.59067 47.115814 C 114.59067 52.623796 119.05592 57.088059 124.56292 57.088059 L 169.74505 57.088059 C 169.74505 57.088059 169.76335 78.631375 169.76335 78.932372 L 152.92026 85.10863 L 152.92026 73.216428 C 152.92026 67.072446 147.93983 62.092026 141.79586 62.092026 L 123.04379 62.092026 C 116.89982 62.092026 111.92031 67.072446 111.92031 73.216428 L 111.92031 115.30174 C 111.92031 121.44571 116.89982 126.42614 123.04379 126.42614 L 141.79586 126.42614 C 147.93883 126.42614 152.92026 121.44571 152.92026 115.30174 L 152.92026 110.5778 L 167.7409 118.23932 C 166.4149 130.74429 164.4323 143.04519 161.8163 155.08913 L 156.85992 155.08913 C 143.38498 155.08913 132.1319 166.1118 131.8529 179.58277 L 131.77603 183.31012 C 130.27603 206.45706 132.26629 217.37192 137.15429 236.70286 C 138.26226 241.08683 139.60669 245.45957 141.15069 249.70054 L 158.56116 297.51735 L 151.73241 305.45433 L 151.73241 302.21567 C 151.73241 296.07167 146.75201 291.09218 140.60801 291.09218 L 121.04422 291.09218 C 114.90022 291.09218 109.91982 296.07167 109.91982 302.21567 L 109.91982 344.30189 C 109.91982 350.44586 114.90022 355.42629 121.04422 355.42629 L 140.60801 355.42629 C 146.75201 355.42629 151.73241 350.44586 151.73241 344.30189 L 151.73241 325.38418 L 163.66031 311.52261 L 164.28534 313.24032 C 167.04934 320.83029 173.36073 326.45108 180.9207 328.53408 L 180.9207 337.63786 L 167.16894 337.63786 C 161.66097 337.63786 157.19669 342.10305 157.19669 347.61102 L 157.19669 364.86867 C 157.19669 370.37664 161.66197 374.84183 167.16894 374.84183 L 207.67198 374.84183 C 213.17995 374.84183 217.64422 370.37664 217.64422 364.86867 L 217.64422 347.61102 C 217.64422 342.10305 213.17895 337.63786 207.67198 337.63786 L 193.92113 337.63786 L 193.92113 328.52768 C 201.4531 326.44268 207.74814 320.8429 210.51714 313.2879 L 211.1678 311.50979 L 223.10759 325.38693 L 223.10759 344.30372 C 223.10759 350.44769 228.08799 355.42812 234.23199 355.42812 L 253.79578 355.42812 C 259.93878 355.42812 264.92018 350.44769 264.92018 344.30372 L 264.92018 302.21841 C 264.92018 296.07244 259.93978 291.09218 253.79578 291.09218 L 234.2329 291.09218 C 228.08893 291.09218 223.10942 296.07167 223.10942 302.21567 L 223.10942 305.45433 L 216.29073 297.53017 L 233.57217 250.36859 C 235.15517 246.04962 236.53018 241.59614 237.65918 237.13114 C 242.62215 217.5092 244.63232 206.40707 243.00632 182.70613 L 242.94043 179.58277 C 242.65843 166.0768 231.43954 155.08913 217.93157 155.08913 L 213.0118 155.08913 C 210.3728 143.03919 208.36273 130.81878 207.00576 118.48184 L 221.92065 110.64827 L 221.92065 115.30174 C 221.92065 121.44571 226.90106 126.42614 233.04506 126.42614 L 251.79712 126.42614 C 257.94012 126.42614 262.92061 121.44571 262.92061 115.30174 L 262.92061 73.216428 C 262.92061 67.072446 257.94112 62.092026 251.79712 62.092026 L 233.04506 62.092026 C 226.90106 62.092026 221.92065 67.072446 221.92065 73.216428 L 221.92065 85.062873 L 204.87715 78.707249 C 204.87715 78.482249 204.965 57.089889 204.965 57.089889 L 250.278 57.089889 C 255.78597 57.089889 260.25024 52.624629 260.25024 47.117644 L 260.25024 28.730717 C 260.25024 23.222735 255.78497 18.759388 250.278 18.759388 L 205.13156 18.759388 L 205.1343 18.293583 C 205.1553 13.509598 203.46433 8.8036726 200.13033 5.3736828 C 197.01036 2.1636924 192.89409 0.28770762 188.46966 0.031114648 z M 187.42 13.000432 C 188.683 13.000432 189.86919 13.492782 190.76116 14.387779 C 191.65216 15.282779 192.1397 16.470777 192.1357 17.730774 L 191.87397 77.979715 C 191.76197 106.47263 194.91938 134.70201 201.25138 162.04692 C 197.08838 159.94792 192.39189 158.75883 187.42092 158.75883 C 182.44592 158.75883 177.74719 159.95041 173.58222 162.05241 C 179.78819 135.0965 182.88061 106.86893 182.76561 77.998018 L 182.7043 17.732604 C 182.7003 16.470607 183.18784 15.281779 184.07884 14.387779 C 184.97081 13.492782 186.157 13.000432 187.42 13.000432 z M 127.59019 31.758905 L 169.71943 31.758905 L 169.73224 44.089457 L 127.59019 44.089457 L 127.59019 31.758905 z M 205.07482 31.758905 L 247.24981 31.758905 L 247.24981 44.089457 L 205.02082 44.089457 L 205.07482 31.758905 z M 205.12515 92.67315 L 218.60877 97.701826 L 205.75293 104.45462 C 205.47893 100.53562 205.27015 96.608138 205.12515 92.67315 z M 169.52176 92.868074 C 169.38576 96.669062 169.19264 100.45401 168.94064 104.22401 L 156.33006 97.706402 L 169.52176 92.868074 z M 156.85901 168.08865 L 158.72406 168.08865 C 158.67306 168.28465 157.82265 171.54878 157.82265 171.54878 C 156.27665 177.45378 155.836 183.52473 156.514 189.5907 L 162.9163 246.84806 C 164.3133 259.34203 174.84703 268.76376 187.42 268.76376 C 199.99197 268.76376 210.52579 259.34203 211.92279 246.84806 L 218.32508 189.5907 C 219.00308 183.52473 218.56158 177.45384 217.01461 171.54787 C 217.01461 171.54787 216.16511 168.28565 216.11411 168.08865 L 217.92974 168.08865 C 224.41774 168.08865 229.80591 173.36723 229.94091 179.85823 L 230.02511 183.44831 C 231.54808 205.48222 229.77608 215.27578 225.05408 233.94372 C 224.03408 237.97472 222.79325 241.99824 221.36425 245.89724 L 206.51341 286.4259 L 168.35587 286.4259 L 153.36502 245.2539 C 151.97302 241.4249 150.75763 237.47624 149.75663 233.51727 C 145.10766 215.13133 143.35424 205.50486 144.75724 184.01295 L 144.84875 179.85273 C 144.98275 173.36676 150.37004 168.08865 156.85901 168.08865 z M 172.41176 214.75879 L 202.43007 214.75879 L 199.0038 245.40306 C 198.3438 251.31006 193.36389 255.76424 187.42092 255.76424 C 181.47792 255.76424 176.49803 251.31006 175.83803 245.40306 L 172.41176 214.75879 z M 170.19621 350.63738 L 204.64379 350.63738 L 204.64379 361.83957 L 170.19621 361.83957 L 170.19621 350.63738 z " />
<path
   style="fill:#b77718;stroke:#b77718;stroke-width:2;stroke-linecap:square;stroke-dasharray:none;fill-opacity:1;stroke-opacity:1"
   d="m 359.15539,609.50205 c -0.31522,-0.79888 -8.15973,-22.3261 -17.43225,-47.83826 -17.54548,-48.27414 -20.48959,-57.38942 -25.4164,-78.69165 -7.53724,-32.58906 -9.03166,-51.26201 -7.17857,-89.69742 0.59989,-12.44264 0.92945,-14.69506 2.72338,-18.61352 4.19992,-9.17384 11.521,-14.42373 21.35808,-15.31573 5.10834,-0.46321 5.12719,-0.45693 4.55803,1.51885 -2.54996,8.85188 -3.92974,17.47967 -4.34422,27.16458 -0.44119,10.30892 0.0572,15.91717 6.63991,74.7162 3.91429,34.96388 7.65192,66.2926 8.30583,69.6194 1.92589,9.79801 6.29216,17.58698 14.45781,25.79118 10.81404,10.86512 22.10887,15.60733 37.17301,15.60733 15.03657,0 26.31915,-4.73629 37.19822,-15.61536 8.17597,-8.17598 12.48475,-15.8734 14.4326,-25.78315 0.65391,-3.3268 4.39154,-34.65552 8.30583,-69.6194 6.5827,-58.79903 7.0811,-64.40728 6.63991,-74.7162 -0.41254,-9.63937 -1.81213,-18.41718 -4.31116,-27.03819 -0.49364,-1.70291 -0.26795,-1.85758 2.71034,-1.85758 9.29496,0 18.30476,5.69893 22.45912,14.20597 2.46449,5.04663 2.56401,5.70399 3.47355,22.94573 1.05057,19.91499 0.5343,43.13752 -1.24807,56.14035 -2.56323,18.69938 -10.19286,50.80367 -16.0887,67.69866 -1.82227,5.22188 -9.99158,27.69866 -18.15401,49.9484 l -14.84079,40.45408 -40.42416,0.21412 c -37.92807,0.2009 -40.45956,0.12444 -40.99729,-1.23839 z"
   id="path6"
   transform="scale(0.46855)" /><path
   style="fill:#b77718;fill-opacity:1;stroke:#b77718;stroke-width:2;stroke-linecap:square;stroke-dasharray:none;stroke-opacity:1"
   d="m 371.43701,343.6128 c 2.57262,-8.63537 10.08941,-51.89401 12.79663,-73.64376 5.18946,-41.69192 5.84217,-58.57145 5.85125,-151.31651 0.009,-89.805377 -0.23047,-85.648966 5.11827,-88.910004 3.45786,-2.108203 6.13499,-2.108711 9.59069,-0.0018 5.24034,3.194957 5.04432,-0.251168 4.53077,79.650414 -0.57173,88.9529 0.36127,113.62473 5.99443,158.51394 2.90564,23.15432 10.50917,66.63293 13.23975,75.70774 0.36994,1.22947 -0.17463,1.16168 -4.37323,-0.54436 -14.69476,-5.97102 -33.67638,-5.97102 -48.37114,0 -4.19975,1.70651 -4.7438,1.77417 -4.37742,0.54436 z"
   id="path7"
   transform="scale(0.46855)" /><path
   style="fill:#b77718;fill-opacity:1;stroke:#b77718;stroke-width:2;stroke-linecap:square;stroke-dasharray:none;stroke-opacity:1"
   d="M 272.85862,81.320949 V 68.524252 h 44.58204 44.58204 v 12.796697 12.796698 h -44.58204 -44.58204 z"
   id="path8"
   transform="scale(0.46855)" /><path
   style="fill:#b77718;fill-opacity:1;stroke:#b77718;stroke-width:2;stroke-linecap:square;stroke-dasharray:none;stroke-opacity:1"
   d="M 437.9773,81.320949 V 68.524252 h 44.58204 44.58204 V 81.320949 94.117647 H 482.55934 437.9773 Z"
   id="path9"
   transform="scale(0.46855)" /><path
   style="fill:#b77718;fill-opacity:1;stroke:#b77718;stroke-width:2;stroke-linecap:square;stroke-dasharray:none;stroke-opacity:1"
   d="M 363.67389,760.37152 V 748.81321 H 400 436.32611 v 11.55831 11.5583 H 400 363.67389 Z"
   id="path10"
   transform="scale(0.46855)" /><path
   style="fill:#b77718;fill-opacity:1;stroke:#b77718;stroke-width:2;stroke-linecap:square;stroke-dasharray:none;stroke-opacity:1"
   d="m 394.82722,544.85819 c -4.7161,-1.17064 -8.94544,-3.613 -12.33034,-7.12054 -5.66258,-5.86775 -6.1032,-7.77917 -10.15794,-44.06578 -2.04132,-18.2681 -3.71149,-33.53585 -3.71149,-33.92833 0,-0.39249 14.11765,-0.71361 31.37255,-0.71361 17.2549,0 31.37255,0.32112 31.37255,0.71361 0,0.39248 -1.66784,15.63943 -3.70632,33.8821 -4.10526,36.73872 -4.54462,38.58599 -10.58314,44.49694 -5.88002,5.7558 -15.03767,8.52731 -22.25587,6.73561 z"
   id="path11"
   transform="scale(0.46855)" /><g
   id="g19"
   transform="matrix(0.00712802,0,0,0.00712802,166.89426,164.26894)"><g
     id="layer101"
     fill="#0bbd0b"
     stroke="none"><path
       d="m 2050,4059 c -270,-29 -493,-254 -519,-524 -23,-229 79,-441 272,-566 88,-57 165,-80 287,-86 187,-9 315,40 445,171 124,124 175,247 175,416 0,359 -301,627 -660,589 z m 185,-154 c 219,-57 365,-283 327,-505 -60,-353 -483,-500 -744,-260 -227,207 -186,566 82,723 94,54 223,71 335,42 z"
       id="path1-3" /></g><g
     id="layer102"
     fill="#0891f8"
     stroke="none"><path
       d="m 2208,4290 c -239,-38 -442,-143 -605,-313 -134,-140 -211,-278 -265,-474 -18,-64 -21,-107 -22,-243 -1,-142 2,-177 23,-254 50,-191 126,-328 260,-468 219,-229 496,-341 805,-325 266,14 499,118 687,306 122,122 200,246 253,406 191,569 -146,1189 -729,1340 -112,29 -306,41 -407,25 z m 312,-151 c 327,-59 606,-314 700,-639 31,-107 38,-307 15,-421 -55,-273 -233,-507 -480,-631 -137,-69 -337,-106 -486,-89 -126,14 -202,36 -314,91 -371,179 -570,594 -479,1000 18,82 54,180 65,180 5,0 9,6 9,13 0,24 58,133 103,192 46,61 126,127 207,172 25,13 63,35 85,49 60,36 215,83 308,93 88,9 179,6 267,-10 z"
       id="path2" /></g><g
     id="layer103"
     fill="#082693"
     stroke="none"><path
       d="m 1220,5730 c 0,-46 2,-50 24,-50 14,0 38,-11 53,-24 l 28,-24 3,-262 4,-261 61,3 62,3 3,255 c 2,214 0,262 -13,297 -28,72 -96,113 -187,113 h -38 z"
       id="path3" /><path
       d="m 1644,5632 c -45,-28 -73,-73 -86,-136 -28,-133 50,-256 162,-256 35,0 105,33 113,52 3,7 6,-33 6,-89 l 1,-103 h 65 65 v 270 270 h -65 c -59,0 -65,-2 -65,-21 0,-20 0,-20 -32,2 -44,32 -123,37 -164,11 z m 171,-97 c 22,-21 25,-33 25,-90 0,-57 -3,-69 -25,-90 -31,-32 -66,-32 -102,-1 -25,22 -28,30 -28,89 0,55 4,69 24,91 32,34 74,34 106,1 z"
       id="path4" /><path
       d="m 2173,5634 c -129,-48 -165,-234 -64,-335 82,-83 240,-78 314,10 29,35 47,88 47,139 v 32 h -145 c -160,0 -167,3 -121,57 22,25 30,28 88,27 41,0 79,-8 111,-22 l 47,-21 v 48 c 0,46 -1,48 -37,60 -63,20 -192,23 -240,5 z m 167,-248 c 0,-8 -8,-24 -19,-37 -27,-34 -86,-32 -117,5 -13,15 -24,31 -24,37 0,5 36,9 80,9 62,0 80,-3 80,-14 z"
       id="path5" /><path
       d="m 3225,5635 c -130,-46 -168,-235 -66,-336 107,-107 322,-62 360,76 51,185 -108,326 -294,260 z m 146,-101 c 20,-22 24,-36 24,-89 0,-53 -4,-67 -24,-89 -16,-17 -35,-26 -56,-26 -21,0 -40,9 -56,26 -20,22 -24,36 -24,89 0,53 4,67 24,89 16,17 35,26 56,26 21,0 40,-9 56,-26 z"
       id="path6-6" /><path
       d="m 3795,5634 c -16,-8 -38,-23 -47,-31 -17,-15 -18,-14 -18,10 0,26 -2,27 -60,27 h -60 v -270 -270 h 60 60 v 101 100 l 37,-28 c 48,-36 135,-40 180,-7 113,84 102,307 -17,369 -37,19 -97,19 -135,-1 z m 76,-100 c 20,-22 24,-36 24,-91 0,-59 -3,-67 -28,-89 -52,-45 -111,-21 -127,51 -26,114 63,202 131,129 z"
       id="path7-7" /><path
       d="m 4215,5635 c -130,-46 -168,-235 -66,-336 107,-107 322,-62 360,76 51,185 -108,326 -294,260 z m 146,-101 c 20,-22 24,-36 24,-89 0,-53 -4,-67 -24,-89 -16,-17 -35,-26 -56,-26 -21,0 -40,9 -56,26 -20,22 -24,36 -24,89 0,53 4,67 24,89 16,17 35,26 56,26 21,0 40,-9 56,-26 z"
       id="path8-5" /><path
       d="m 2580,5380 v -260 h 133 c 182,1 235,22 259,102 16,53 -2,109 -46,145 l -34,27 24,19 c 20,16 124,202 124,222 0,3 -30,5 -67,3 l -68,-3 -42,-80 c -47,-91 -72,-115 -119,-115 h -33 l -3,98 -3,97 -62,3 -63,3 z m 245,-50 c 9,-7 15,-29 15,-51 0,-46 -18,-59 -84,-59 h -46 v 66 67 l 50,-5 c 27,-3 56,-11 65,-18 z"
       id="path9-3" /><path
       d="m 4670,5627 c -44,-22 -60,-70 -60,-184 v -103 h -30 c -29,0 -30,-2 -30,-45 0,-43 1,-45 30,-45 30,0 30,-1 30,-55 v -55 h 65 65 v 55 55 h 60 60 v 45 45 h -60 -61 l 3,103 3,102 53,3 52,3 v 45 44 h -77 c -43,0 -89,-6 -103,-13 z"
       id="path10-5" /></g><g
     id="layer104"
     fill="#ffa500"
     stroke="none"><path
       d="m 2540,4563 c -193,-19 -403,-79 -580,-165 -69,-34 -131,-62 -138,-64 -18,-4 -134,-98 -230,-189 -95,-89 -220,-241 -301,-365 -75,-115 -168,-299 -174,-346 -3,-22 -15,-84 -28,-139 -21,-89 -24,-124 -23,-315 0,-197 2,-224 26,-325 99,-413 323,-737 674,-974 385,-260 878,-345 1338,-231 520,128 944,499 1131,989 68,179 96,338 96,546 1,399 -142,760 -416,1055 -271,293 -632,473 -1040,520 -85,9 -257,11 -335,3 z m 325,-148 c 221,-18 480,-113 690,-252 126,-84 307,-264 388,-384 108,-163 181,-336 223,-529 14,-66 19,-127 18,-270 0,-164 -3,-198 -26,-296 -68,-289 -202,-521 -418,-727 -459,-436 -1160,-538 -1730,-252 -404,203 -686,565 -782,1003 -31,141 -31,405 0,549 62,285 216,569 408,754 141,135 377,271 583,338 213,69 388,87 646,66 z"
       id="path11-6" /></g><g
     id="layer105"
     fill="#ff0000"
     stroke="none"><path
       d="M 2845,4853 C 2495,4830 2103,4696 1802,4496 1277,4147 939,3613 843,2980 c -23,-157 -23,-454 0,-608 74,-475 281,-892 607,-1222 327,-330 719,-536 1185,-622 158,-29 554,-32 705,-5 491,86 908,305 1239,652 558,586 745,1419 489,2190 -214,648 -719,1157 -1363,1374 -285,96 -568,133 -860,114 z m 491,-166 c 344,-65 633,-190 893,-385 103,-78 278,-248 360,-351 382,-480 528,-1087 406,-1683 C 4760,1117 3600,407 2460,716 c -484,131 -920,459 -1192,896 -148,238 -251,535 -287,828 -16,122 -13,371 4,502 36,272 125,534 259,762 317,538 850,895 1478,991 123,19 499,14 614,-8 z"
       id="path12" /></g></g></svg>
