<?xml version="1.0" encoding="UTF-8"?>
<!-- Created with Inkscape (http://www.inkscape.org/) -->
<svg width="54.903mm" height="45.702mm" version="1.1" viewBox="0 0 54.903 45.702" xmlns="http://www.w3.org/2000/svg">
 <g transform="translate(-47.084 -51.189)" stroke="#000">
  <circle cx="37.579" cy="47.382" r=".048362" stroke-width=".26458"/>
  <g fill="none">
   <path d="m53.554 52.828h42.48s4.357-0.72616 4.357 3.2677v34.13s0.36308 5.0831-3.2677 5.0831h-43.207s-4.72 0-5.0831-6.1724c-0.36308-6.1724 0-31.225 0-31.225s0.72616-3.9939 4.72-5.0831z" stroke-width="3.165"/>
   <path d="m49.197 64.447h50.65" fill="#008000" stroke-width="3"/>
   <path d="m59.364 72.616 4.72 5.9908-5.9908 5.6278" opacity="1e-8" stroke-width="3.2"/>
   <path d="m69.167 84.598h9.8032" opacity="0" stroke-width="3"/>
   <g stroke-width="2">
    <path d="m57.911 53.917v9.8032"/>
    <path d="m63.358 53.191v10.711"/>
    <path d="m68.804 53.554v9.9847"/>
   </g>
   <g>
    <g stroke-width=".29863">
     <path transform="matrix(.26458 0 0 .26458 47.084 51.189)" d="m12.605 35.014c0.14024-8.9935 0.15891-9.2216 0.90517-11.058 1.9985-4.9178 5.1736-8.5207 9.2461-10.492l2.522-1.2207h11.752v31.953h-24.569z" fill="#e76337"/>
     <path transform="matrix(.26458 0 0 .26458 47.084 51.189)" d="m44.795 28.221v-15.977h12.841v31.953h-12.841z" fill="#81807a"/>
     <path transform="matrix(.26458 0 0 .26458 47.084 51.189)" d="m65.4 28.221v-15.977h12.841v31.953h-12.841z" fill="#81807a"/>
    </g>
    <path d="m69.84 58.616v-4.2662h13.961c15.122 0 14.522-0.0168 14.932 0.4183 0.41376 0.43851 0.4196 0.50035 0.4196 4.4434v3.6707h-29.313z" fill="#4b4943" stroke-width=".079916"/>
    <path d="m53.094 93.885c-1.3403-0.31196-2.3643-1.3976-2.8001-2.9685-0.32179-1.1601-0.33785-1.7352-0.37749-13.521l-0.03845-11.43h49.469l-0.0013 12.827c-0.0016 14 0.01634 13.444-0.46183 14.383-0.17586 0.34546-0.29993 0.47708-0.58295 0.6184l-0.35953 0.17954-22.27-8e-3c-12.784-0.004623-22.401-0.038434-22.577-0.079416zm26.083-9.1288v-1.556h-10.085v3.112h10.085zm-16.551-2.5108c1.9588-1.8198 3.5612-3.3279 3.5609-3.3513-4.86e-4 -0.03929-5.5732-7.0602-5.7238-7.2114-0.05246-0.05264-2.0567 1.4308-2.5757 1.9064-0.09276 0.08501 0.21059 0.5054 1.831 2.5374l1.9422 2.4356-2.3958 2.227c-1.3177 1.2249-2.4437 2.2842-2.5023 2.354-0.09263 0.11039 0.03826 0.27873 1.0043 1.2917 0.61097 0.64064 1.1529 1.1546 1.2042 1.142 0.05135-0.0125 1.696-1.5117 3.6548-3.3315z" fill="#3a033a" stroke-width=".080235"/>
   </g>
   <g stroke-width="3.6118">
    <path transform="matrix(.26458 0 0 .26458 47.084 51.189)" d="m50.29 78.486c-2.8237 2.0182-5.8364 3.9044-8.3039 6.3477-0.23786 1.2535 1.3467 2.137 1.8476 3.1796 3.8762 5.1236 8.0888 10.057 11.859 15.218-1.4431 2.3237-3.847 3.9985-5.7243 5.9933-4.2044 3.9708-8.4586 7.8884-12.686 11.834 2.3329 2.8449 5.0654 5.3276 7.6011 7.993 8.8731-8.0535 17.707-16.179 26.35-24.471-6.9235-8.7345-13.859-17.458-20.815-26.165z" opacity="0"/>
    <path transform="matrix(.26458 0 0 .26458 47.084 51.189)" d="m84.017 126.92c0.20521 1.6523-0.407 4.122 0.29863 5.2739h36.23v-10.548h-36.529v5.2739z" opacity="0"/>
    <path transform="matrix(.26458 0 0 .26458 47.084 51.189)" d="m50.29 78.486c-2.8237 2.0182-5.8364 3.9044-8.3039 6.3477-0.23786 1.2535 1.3467 2.137 1.8476 3.1796 3.8762 5.1236 8.0888 10.057 11.859 15.218-1.4431 2.3237-3.847 3.9985-5.7243 5.9933-4.2044 3.9708-8.4586 7.8884-12.686 11.834 2.3329 2.8449 5.0654 5.3276 7.6011 7.993 8.8731-8.0535 17.707-16.179 26.35-24.471-6.9235-8.7345-13.859-17.458-20.815-26.165z" opacity="0"/>
    <path transform="matrix(.26458 0 0 .26458 47.084 51.189)" d="m84.017 126.92c0.20521 1.6523-0.407 4.122 0.29863 5.2739h36.23v-10.548h-36.529v5.2739z" opacity="0"/>
    <path transform="matrix(.26458 0 0 .26458 47.084 51.189)" d="m84.017 126.92c0.20521 1.6523-0.407 4.122 0.29863 5.2739h36.23v-10.548h-36.529v5.2739z" opacity="0"/>
    <path transform="matrix(.26458 0 0 .26458 47.084 51.189)" d="m84.017 126.92c0.20521 1.6523-0.407 4.122 0.29863 5.2739h36.23v-10.548h-36.529v5.2739z" opacity="0"/>
    <path transform="matrix(.26458 0 0 .26458 47.084 51.189)" d="m84.017 126.92c0.20521 1.6523-0.407 4.122 0.29863 5.2739h36.23v-10.548h-36.529v5.2739z" opacity="0"/>
    <path transform="matrix(.26458 0 0 .26458 47.084 51.189)" d="m84.017 126.92c0.20521 1.6523-0.407 4.122 0.29863 5.2739h36.23v-10.548h-36.529v5.2739z" opacity="0"/>
   </g>
  </g>
 </g>
</svg>
