<?xml version="1.0" encoding="UTF-8" standalone="no"?>
<!-- Created with Inkscape (http://www.inkscape.org/) -->

<svg
   version="1.1"
   id="svg293"
   width="512"
   height="512"
   viewBox="0 0 512 512"
   sodipodi:docname="joystick_off.svg"
   inkscape:version="1.1.1 (eb90963e84, 2021-10-02)"
   xmlns:inkscape="http://www.inkscape.org/namespaces/inkscape"
   xmlns:sodipodi="http://sodipodi.sourceforge.net/DTD/sodipodi-0.dtd"
   xmlns="http://www.w3.org/2000/svg"
   xmlns:svg="http://www.w3.org/2000/svg">
  <sodipodi:namedview
     id="namedview4015"
     pagecolor="#ffffff"
     bordercolor="#666666"
     borderopacity="1.0"
     inkscape:pageshadow="2"
     inkscape:pageopacity="0.0"
     inkscape:pagecheckerboard="0"
     showgrid="false"
     inkscape:zoom="1.6484375"
     inkscape:cx="255.69668"
     inkscape:cy="256.30332"
     inkscape:window-width="1848"
     inkscape:window-height="1016"
     inkscape:window-x="72"
     inkscape:window-y="27"
     inkscape:window-maximized="1"
     inkscape:current-layer="g299" />
  <defs
     id="defs297" />
  <g
     id="g299"
     style="display:inline">
    <path
       style="display:inline;fill:#000000"
       d="m 45.240245,509.88988 c -4.349241,-2.15283 -7.406046,-5.56557 -9.191554,-10.26181 -0.612732,-1.61161 -1.030752,-20.96315 -1.077502,-49.88112 l -0.07638,-47.24797 27.967523,-77.63464 c 15.382138,-42.69905 28.634736,-78.92488 29.450218,-80.50185 1.774553,-3.43161 4.082388,-5.56173 8.38779,-7.7419 2.81125,-1.42356 8.73822,-1.62059 48.75,-1.62059 H 195 v -32.91483 -32.91483 l -4.93162,-3.62015 C 179.65607,157.90686 168.448,143.21155 163.05373,130.13029 157.50341,116.67063 156.49984,110.92868 156.56416,93 c 0.054,-15.052544 0.30032,-17.289522 2.80786,-25.5 9.90662,-32.437434 35.06259,-56.620753 67.32663,-64.7234619 12.20652,-3.06551343 33.14025,-3.01736639 44.80135,0.103042 8.88197,2.3767363 22.00251,8.3245719 29.25941,13.2639459 6.87575,4.679947 18.77171,16.397591 23.87078,23.512954 13.06144,18.226281 19.37927,43.542229 16.43491,65.85579 -3.04781,23.09757 -14.22541,44.08857 -30.87752,57.98652 L 303,169.49759 V 202.24879 235 h 52.53984 c 50.31863,0 52.70326,0.0834 56.40547,1.9721 4.88809,2.49372 7.4178,5.71475 10.1006,12.86089 7.56101,20.14018 53.51755,148.58903 54.61481,152.64876 1.15495,4.27321 1.1326,5.71738 -0.15713,10.15391 C 475.27636,416.85718 475,425.18474 475,457.94375 c 0,37.41123 -0.12855,40.3878 -1.89359,43.84609 -2.33893,4.58273 -4.61059,6.68722 -9.36089,8.67202 -3.27227,1.36724 -26.48924,1.53805 -208.9634,1.53735 L 49.5,511.99842 Z M 438,450.5 V 426 H 255 72 v 24.5 24.5 h 183 183 z m -9.04538,-72.75 c -2.19969,-6.1875 -11.57348,-32.4 -20.83064,-58.25 l -16.8312,-47 -44.14639,-0.2604 L 303,271.9792 v 28.29851 c 0,27.37524 -0.0734,28.44217 -2.25,32.70186 -1.2375,2.42184 -3.51999,5.32969 -5.0722,6.46189 -2.73069,1.99179 -4.2242,2.06762 -46.05741,2.33867 l -43.2352,0.28013 -3.35065,-2.28013 c -1.84285,-1.25407 -4.29202,-3.54974 -5.44259,-5.10149 -1.99621,-2.69224 -2.10532,-4.19107 -2.38402,-32.75 L 194.91586,272 157.70793,272.0125 120.5,272.025 100.08636,329.26251 C 88.858862,360.74312 79.473217,387.0625 79.229374,387.75 78.87577,388.74696 114.63304,389 255.87004,389 H 432.95406 Z M 266,246.04931 v -59.95069 l -11.75,0.56648 c -6.4625,0.31156 -14.1125,0.1258 -17,-0.4128 L 232,185.27303 V 245.63651 306 h 17 17 z m -4.79922,-97.14628 c 9.74248,-2.01677 19.4737,-7.47648 27.21726,-15.27028 C 299.67269,122.30508 305,109.41157 305,93.5 305,60.52638 277.03488,34.743731 244.06866,37.323913 230.63731,38.375151 219.79594,43.27158 209.76693,52.816061 198.74791,63.302709 193.1884,75.302663 192.30818,90.5 c -1.60331,27.68139 16.57064,52.04264 43.60394,58.44886 5.24981,1.24407 19.17939,1.21883 25.28866,-0.0458 z"
       id="path303" />
  </g>
</svg>
