<?xml version="1.0" encoding="UTF-8" standalone="no"?>
<svg
   xmlns:dc="http://purl.org/dc/elements/1.1/"
   xmlns:cc="http://creativecommons.org/ns#"
   xmlns:rdf="http://www.w3.org/1999/02/22-rdf-syntax-ns#"
   xmlns:svg="http://www.w3.org/2000/svg"
   xmlns="http://www.w3.org/2000/svg"
   xmlns:sodipodi="http://sodipodi.sourceforge.net/DTD/sodipodi-0.dtd"
   xmlns:inkscape="http://www.inkscape.org/namespaces/inkscape"
   inkscape:version="1.0 (1.0+r73+1)"
   sodipodi:docname="rviz.svg"
   id="svg10"
   preserveAspectRatio="xMidYMid meet"
   viewBox="0 0 600.000000 600.000000"
   height="600.000000pt"
   width="600.000000pt"
   version="1.0">
  <defs
     id="defs14" />
  <sodipodi:namedview
     inkscape:current-layer="svg10"
     inkscape:window-maximized="1"
     inkscape:window-y="0"
     inkscape:window-x="40"
     inkscape:cy="399.28952"
     inkscape:cx="400"
     inkscape:zoom="0.70375"
     showgrid="false"
     id="namedview12"
     inkscape:window-height="1050"
     inkscape:window-width="1880"
     inkscape:pageshadow="2"
     inkscape:pageopacity="0"
     guidetolerance="10"
     gridtolerance="10"
     objecttolerance="10"
     borderopacity="1"
     bordercolor="#666666"
     pagecolor="#ffffff" />
  <metadata
     id="metadata2">
Created by potrace 1.16, written by Peter Selinger 2001-2019
<rdf:RDF>
  <cc:Work
     rdf:about="">
    <dc:format>image/svg+xml</dc:format>
    <dc:type
       rdf:resource="http://purl.org/dc/dcmitype/StillImage" />
    <dc:title></dc:title>
  </cc:Work>
</rdf:RDF>
</metadata>
  <g
     id="g8"
     stroke="none"
     fill="#000000"
     transform="translate(0.000000,600.000000) scale(0.100000,-0.100000)">
    <path
       id="path4"
       d="M3694 4901 c-98 -27 -227 -94 -277 -144 -57 -57 -107 -157 -177 -352 -66 -185 -131 -338 -159 -375 -19 -24 -20 -24 -40 -6 -24 22 -106 183 -181 355 -51 118 -124 247 -173 307 -64 78 -214 123 -437 131 -175 6 -262 -7 -400 -63 -89 -37 -101 -39 -195 -38 -68 1 -186 16 -370 47 -347 58 -476 71 -645 64 -311 -13 -512 -111 -582 -285 -22 -55 -23 -66 -22 -337 0 -154 6 -372 13 -485 22 -391 42 -656 61 -855 11 -110 31 -347 45 -527 40 -524 74 -660 190 -767 61 -56 130 -87 239 -106 169 -29 333 -16 384 32 22 20 33 24 64 19 36 -6 38 -4 52 29 13 30 20 35 48 35 28 0 43 11 95 66 35 37 68 64 75 61 8 -2 37 -48 66 -102 79 -147 118 -202 207 -291 90 -92 176 -142 304 -176 104 -29 355 -31 451 -5 271 73 416 256 396 496 -7 84 -68 250 -116 316 -61 84 -87 125 -183 300 -143 262 -294 569 -318 646 -23 77 -19 108 26 186 23 38 29 43 41 32 14 -15 248 -498 347 -718 33 -73 62 -153 65 -177 4 -37 17 -59 82 -136 144 -171 263 -286 326 -315 102 -46 297 -43 411 7 49 22 84 71 173 245 73 143 131 288 139 348 3 26 11 48 16 49 6 0 37 -54 71 -121 68 -137 116 -193 204 -240 92 -49 168 -65 310 -64 185 2 345 29 785 133 138 32 282 64 320 70 256 41 404 128 481 285 89 180 63 372 -69 513 -81 86 -97 111 -97 148 0 19 37 128 84 247 94 238 130 349 146 453 30 192 -79 330 -305 389 -102 26 -269 29 -508 10 -119 -10 -220 -16 -223 -13 -2 3 -20 65 -40 137 -56 216 -96 271 -244 340 -92 42 -413 147 -575 187 -140 35 -287 40 -381 15z m357 -309 c74 -7 115 -24 103 -44 -3 -5 -3 -20 0 -33 8 -31 43 -42 178 -55 152 -15 234 -47 268 -103 37 -60 18 -148 -45 -213 -77 -80 -170 -78 -212 5 -43 85 -86 111 -184 111 -104 0 -131 -60 -464 -1015 -302 -867 -459 -1272 -489 -1262 -20 7 -134 240 -242 492 -342 800 -412 963 -512 1185 -60 135 -147 333 -192 440 -92 218 -124 280 -175 336 -26 28 -32 41 -24 50 19 23 112 36 225 33 200 -7 206 -15 459 -644 181 -451 319 -750 345 -750 7 0 30 45 52 100 63 158 287 776 379 1045 92 271 99 283 192 320 54 21 114 22 338 2z m-2976 -113 c269 -16 342 -34 472 -115 189 -118 332 -310 388 -524 26 -101 32 -319 10 -416 -34 -152 -111 -257 -237 -324 -103 -55 -138 -79 -138 -98 0 -10 34 -48 74 -85 118 -106 256 -307 438 -637 103 -185 378 -715 378 -727 0 -19 -184 -137 -232 -149 -51 -14 -112 -8 -238 23 -182 45 -194 60 -515 648 -114 209 -228 412 -252 450 -50 78 -100 135 -120 135 -33 0 -36 -39 -28 -366 5 -238 4 -332 -5 -358 -23 -71 -174 -175 -268 -183 -48 -5 -278 40 -296 58 -5 4 -26 244 -47 531 -30 415 -118 1591 -156 2077 l-6 84 309 -7 c170 -4 381 -11 469 -17z m4548 -528 c57 -18 64 -43 34 -132 -34 -100 -169 -387 -328 -696 -71 -138 -129 -256 -129 -262 0 -7 44 -11 133 -11 236 0 313 -36 333 -157 9 -60 -14 -106 -70 -132 -131 -64 -803 -199 -930 -188 -67 6 -115 -8 -156 -48 -50 -48 -172 -84 -209 -61 -35 22 -38 131 -16 631 18 412 20 758 6 812 -13 46 -28 62 -95 95 l-49 25 114 7 c67 4 136 3 166 -3 148 -29 155 -72 128 -769 -10 -249 -15 -455 -12 -458 12 -12 464 869 469 916 2 20 -3 27 -32 37 -19 6 -54 12 -77 12 -81 2 -113 34 -128 131 -14 84 -43 120 -121 149 l-48 19 54 10 c30 6 157 23 281 37 124 15 250 32 280 40 66 17 344 14 402 -4z" />
    <path
       id="path6"
       d="M998 4002 c-19 -55 -16 -404 5 -499 33 -149 87 -213 179 -213 67 0 101 33 118 116 26 122 -3 294 -71 425 -60 115 -128 187 -191 203 -24 5 -28 2 -40 -32z" />
  </g>
  <path
     transform="scale(0.75)"
     id="path16"
     d="m 266.11494,609.06214 c -7.51713,-1.90363 -14.78494,-4.81469 -18.47247,-7.39901 -7.46647,-5.23266 -18.90754,-22.05556 -35.77948,-52.61001 -40.42399,-73.20631 -49.07939,-88.26595 -54.90202,-95.52468 -6.60343,-8.23213 -10.74733,-10.52367 -12.89683,-7.13184 -0.66782,1.0538 -1.22823,22.69754 -1.24535,48.09718 -0.0351,52.01489 0.3882,49.81633 -11.38352,59.13163 -9.95078,7.87433 -18.19101,11.20623 -27.70525,11.20251 -7.907836,-0.003 -31.321278,-4.23267 -34.580258,-6.24682 C 67.405172,557.50288 65.440338,534.87605 55.379147,400 51.065045,342.16696 45.951776,274.15447 44.01633,248.86114 42.080883,223.5678 40.497336,202.23158 40.497336,201.44732 c 0,-2.79715 113.337504,1.68663 134.054794,5.30339 37.15977,6.48724 73.03799,42.32461 82.89254,82.79817 3.42446,14.06456 3.40518,46.59372 -0.0344,57.87563 -5.53384,18.15165 -15.95473,30.94556 -32.28157,39.6327 -9.49027,5.04959 -16.9582,10.48894 -16.9582,12.35174 0,0.76766 6.12204,7.86355 13.60454,15.76861 22.74619,24.0308 49.10217,67.13242 88.70451,145.06424 l 16.34103,32.15684 -3.55239,3.57156 c -1.95382,1.96435 -8.65237,6.47217 -14.88567,10.01738 -10.37664,5.90173 -12.11578,6.43598 -20.60391,6.32939 -5.09884,-0.0641 -14.8475,-1.52871 -21.66369,-3.25483 z M 164.63204,360.38796 c 7.4053,-3.09413 10.01399,-10.14091 10.05934,-27.17304 0.0208,-7.81528 -0.83043,-17.72647 -1.89164,-22.02487 -2.42118,-9.8069 -9.83723,-26.17052 -15.7657,-34.78725 -7.72145,-11.22275 -20.47073,-18.36837 -23.63578,-13.24721 -2.12287,3.43486 -3.13668,29.42118 -1.92943,49.45542 1.76904,29.35712 6.26979,41.82866 17.04972,47.24469 5.96436,2.99659 9.90405,3.12672 16.11349,0.53226 z"
     style="fill:#ffffff;stroke:none;stroke-width:1.42096;fill-opacity:1" />
  <path
     transform="scale(0.75)"
     id="path841"
     d="m 266.29587,609.14262 c -6.71666,-1.72892 -14.84692,-4.88713 -18.06724,-7.01824 -8.52113,-5.63902 -18.38369,-20.6167 -43.651,-66.29021 -40.01286,-72.32774 -43.4351,-78.10272 -51.65447,-87.16632 -3.95026,-4.35599 -7.94475,-5.07251 -9.25426,-1.65998 -0.47438,1.23621 -0.86672,22.81703 -0.87187,47.95737 -0.0105,51.48761 0.40348,49.35 -11.36176,58.66017 -10.30275,8.15285 -18.12255,11.21489 -28.41573,11.12687 -8.569687,-0.0733 -30.43843,-4.0505 -33.843712,-6.15508 -1.610977,-0.99564 -4.783422,-36.27646 -11.641697,-129.46754 -2.386893,-32.43339 -7.196628,-96.56836 -10.6883,-142.52215 -3.491672,-45.95379 -6.348495,-84.23494 -6.348495,-85.06923 0,-2.87748 112.724844,1.49946 134.094334,5.20669 36.64424,6.35713 73.13642,42.69534 82.76941,82.42022 3.50782,14.46567 3.53519,46.8251 0.0493,58.25932 -5.73063,18.79713 -14.58218,29.44148 -33.62407,40.43429 -11.24996,6.49456 -15.61578,9.72999 -15.61578,11.57259 0,0.61729 6.163,7.7118 13.69556,15.76555 24.27129,25.95068 56.76853,80.05984 97.33532,162.06705 l 7.55597,15.27464 -3.52079,3.50155 c -1.93641,1.92587 -8.62073,6.40219 -14.85404,9.9474 -10.33116,5.87588 -12.15296,6.4393 -20.6039,6.37218 -5.09884,-0.0405 -14.76608,-1.48821 -21.48276,-3.21714 z M 163.81498,360.81731 c 5.65136,-1.97008 8.09528,-5.84338 10.25691,-16.25589 3.14197,-15.13479 -0.79247,-37.89151 -9.57753,-55.39623 -10.98141,-21.88105 -27.72444,-34.44103 -31.76046,-23.82548 -2.3202,6.10259 -1.84358,56.19065 0.64842,68.14235 4.79465,22.9953 15.44365,32.56044 30.43266,27.33525 z"
     style="fill:#ffffff;fill-opacity:1;stroke-width:1.42096" />
  <path
     transform="scale(0.75)"
     id="path843"
     d="m 423.55774,528.20548 c -6.72072,-11.46804 -19.67337,-40.2263 -51.98345,-115.41685 -17.79898,-41.42096 -38.74616,-89.69804 -46.5493,-107.28241 -7.80314,-17.58437 -17.86367,-40.60391 -22.35675,-51.15453 -10.99491,-25.81824 -17.15378,-37.919 -22.90312,-44.99936 -2.64524,-3.25764 -4.80952,-6.24535 -4.80952,-6.63936 0,-2.24541 12.57734,-4.27783 26.29152,-4.24855 28.91552,0.0618 29.75103,1.17068 63.81943,84.70458 29.03274,71.18672 42.72029,100.48997 46.9389,100.48997 3.02134,0 13.74556,-27.44213 43.59122,-111.54529 28.44135,-80.14584 26.87973,-76.66173 36.57811,-81.60946 7.89898,-4.02976 16.1414,-4.70822 36.13185,-2.9741 22.41887,1.94477 25.15696,2.85392 25.15696,8.35308 0,2.26824 0.84972,4.82927 1.88827,5.69119 1.03855,0.86191 10.72092,2.84547 21.5164,4.4079 29.18243,4.22357 37.69657,9.37964 37.69657,22.82861 0,11.61118 -12.24467,25.54079 -22.45135,25.54079 -5.33541,0 -8.65099,-2.53856 -13.77256,-10.54486 -5.75236,-8.99238 -11.62832,-12.19049 -22.39791,-12.19049 -6.31327,0 -8.46439,0.66367 -11.6149,3.58347 -7.38128,6.84074 -16.60467,29.68915 -47.02344,116.48758 -42.63848,121.66676 -65.8488,182.59325 -69.56,182.59325 -0.34466,0 -2.22878,-2.73381 -4.18693,-6.07516 z"
     style="fill:#ffffff;fill-opacity:1;stroke-width:1.42096" />
  <path
     transform="scale(0.75)"
     id="path845"
     d="m 574.03985,496.78163 c -2.65569,-1.94102 -2.81147,-3.76498 -2.76455,-32.36778 0.0273,-16.67096 0.60899,-58.86626 1.29254,-93.76735 1.00341,-51.23261 0.8849,-64.3206 -0.61518,-67.94211 -1.21715,-2.93847 -4.35853,-5.91982 -9.10781,-8.64383 l -7.24982,-4.15823 18.16287,-0.0134 c 20.98999,-0.0154 26.56485,1.58001 30.22008,8.64844 4.79989,9.28197 5.06516,36.91269 1.264,131.65793 -0.58166,14.49794 -0.41713,23.09059 0.44214,23.09059 3.60845,0 63.27838,-117.60523 62.60095,-123.38208 -0.47005,-4.00844 -2.89492,-5.03257 -15.81201,-6.67812 -8.20199,-1.04487 -11.61329,-4.09074 -13.78639,-12.30951 -4.15824,-15.72664 -5.97051,-18.70872 -13.77553,-22.66749 l -7.40991,-3.75836 4.57088,-0.85632 c 5.57849,-1.0451 64.72038,-8.8747 83.62074,-11.07028 16.0231,-1.86134 43.65062,-0.0223 47.48623,3.161 5.85946,4.86291 1.28944,16.68829 -35.04929,90.69372 -13.95592,28.42183 -25.0803,52.15192 -24.72084,52.73351 0.35945,0.5816 9.886,1.3709 21.17011,1.75398 17.98729,0.61066 21.35499,1.1167 27.31764,4.10485 9.1749,4.59798 12.39758,9.34309 12.52805,18.44652 0.0945,6.58902 -0.35417,7.67772 -4.63818,11.25579 -10.24611,8.55771 -86.07345,25.55966 -125.91953,28.23358 -15.288,1.02592 -16.33896,1.30369 -22.96368,6.06926 -11.14632,8.01827 -22.1613,11.20245 -26.86351,7.76564 z"
     style="fill:#ffffff;fill-opacity:1;stroke-width:1.42096" />
  <path
     transform="scale(0.75)"
     id="path847"
     d="m 573.98384,496.74067 c -2.58338,-1.88815 -2.75583,-3.93773 -2.71985,-32.32682 0.0211,-16.67096 0.60215,-58.44858 1.29114,-92.83915 1.45666,-72.70769 1.67042,-70.98712 -9.62417,-77.46496 l -7.33593,-4.20741 18.16287,-0.0133 c 20.98999,-0.0154 26.56485,1.58001 30.22008,8.64844 4.79989,9.28197 5.06516,36.9127 1.264,131.65794 -0.58374,14.54977 -0.41848,23.09059 0.44678,23.09059 3.67448,0 63.24122,-117.65878 62.56355,-123.57822 -0.43375,-3.78877 -3.03892,-4.85896 -15.77925,-6.48198 -8.20199,-1.04488 -11.61329,-4.09074 -13.78639,-12.30952 -4.05548,-15.33803 -6.02986,-18.58816 -13.73804,-22.61496 l -7.3352,-3.83195 4.51478,-0.84581 c 5.53456,-1.03685 64.75861,-8.87513 83.56464,-11.05975 16.0231,-1.86134 43.65062,-0.0223 47.48623,3.161 5.81984,4.83003 -0.33276,20.66601 -36.51109,93.97481 -13.14293,26.63177 -23.60583,48.89132 -23.25087,49.46564 0.35495,0.57434 9.87783,1.35768 21.16194,1.74076 17.98729,0.61066 21.35499,1.1167 27.31764,4.10485 9.1749,4.59798 12.39758,9.34309 12.52805,18.44652 0.0945,6.58902 -0.35417,7.67772 -4.63818,11.25579 -10.24611,8.55771 -86.07345,25.55966 -125.91953,28.23358 -15.37754,1.03191 -16.30016,1.279 -22.96368,6.14977 -6.36554,4.65296 -17.95089,9.66016 -22.35106,9.66016 -0.9956,0 -3.05141,-0.9072 -4.56846,-2.01599 z"
     style="fill:#ffffff;fill-opacity:1;stroke-width:1.42096" />
</svg>
