<?xml version="1.0" encoding="iso-8859-1"?>
<!-- Generator: Adobe Illustrator 19.0.0, SVG Export Plug-In . SVG Version: 6.00 Build 0)  -->
<svg version="1.1" id="Capa_1" xmlns="http://www.w3.org/2000/svg" xmlns:xlink="http://www.w3.org/1999/xlink" x="0px" y="0px"
	 viewBox="0 0 496 496" style="enable-background:new 0 0 496 496;" xml:space="preserve">
<g>
	<g>
		<g>
			<path d="M336,416v16h144v24c0,13.232-10.768,24-24,24H40c-13.232,0-24-10.768-24-24v-24h144v-16H0v40c0,22.056,17.944,40,40,40
				h416c22.056,0,40-17.944,40-40v-40H336z"/>
			<path d="M200,464h96c13.232,0,24-10.768,24-24v-24H176v24C176,453.232,186.768,464,200,464z M192,432h112v8c0,4.416-3.592,8-8,8
				h-96c-4.408,0-8-3.584-8-8V432z"/>
			<path d="M32,144c0-13.232,10.768-24,24-24h56v-16H56c-22.056,0-40,17.944-40,40v256h16V144z"/>
			<path d="M464,144v256h16V144c0-22.056-17.944-40-40-40h-56v16h56C453.232,120,464,130.768,464,144z"/>
			<path d="M48,152v248h16V152h64v-16H64C55.176,136,48,143.176,48,152z"/>
			<path d="M448,400V152c0-8.824-7.176-16-16-16h-64v16h64v248H448z"/>
			<rect x="272" y="240" width="16" height="112"/>
			<rect x="208" y="240" width="16" height="112"/>
			<path d="M368,304v-16h-32c-4.408,0-8-3.584-8-8v-48h-16v48c0,13.232,10.768,24,24,24H368z"/>
			<path d="M184,280v-48h-16v48c0,4.416-3.592,8-8,8h-32v16h32C173.232,304,184,293.232,184,280z"/>
			<rect x="272" y="368" width="16" height="16"/>
			<rect x="208" y="368" width="16" height="16"/>
			<rect x="384" y="288" width="16" height="16"/>
			<rect x="96" y="288" width="16" height="16"/>
			<path d="M144.912,136.576c-0.608,2.44-0.912,4.928-0.912,7.424c0,11.624,6.352,22.176,16.216,27.784
				C160.088,173.176,160,174.576,160,176c0,26.472,21.528,48,48,48c16.688,0,31.392-8.568,40-21.52
				c8.608,12.96,23.312,21.52,40,21.52c26.472,0,48-21.528,48-48c0-1.424-0.088-2.824-0.216-4.216
				C345.648,166.176,352,155.624,352,144c0-2.496-0.304-4.976-0.912-7.424C361.544,129.168,368,117.048,368,104
				c0-12.928-6.36-25.016-16.76-32.48c0.464-2.44,0.76-4.944,0.76-7.52c0-20.392-15.392-37.072-35.136-39.504
				C310.792,10.12,296.56,0,280,0c-13.128,0-24.704,6.448-32,16.248C240.704,6.448,229.128,0,216,0
				c-16.56,0-30.792,10.12-36.864,24.496C159.392,26.928,144,43.608,144,64c0,2.576,0.296,5.08,0.76,7.52
				C134.36,78.984,128,91.072,128,104C128,117.048,134.456,129.168,144.912,136.576z M256,40c0-13.232,10.768-24,24-24
				s24,10.768,24,24s-10.768,24-24,24v16c21.568,0,39.08-17.192,39.856-38.568C329.224,44.704,336,53.528,336,64
				c0,13.232-10.768,24-24,24v16c13.544,0,25.496-6.808,32.736-17.136C349.296,91.328,352,97.48,352,104
				c0,9.328-5.52,17.872-14.072,21.776l-7.64,3.488l3.848,7.464c1.232,2.392,1.864,4.84,1.864,7.272
				c0,4.328-1.888,8.248-4.816,11.184C323.416,139.128,307.008,128,288,128v16c17.648,0,32,14.352,32,32s-14.352,32-32,32
				s-32-14.352-32-32V40z M151.264,86.864C158.504,97.192,170.456,104,184,104V88c-13.232,0-24-10.768-24-24
				c0-10.472,6.776-19.296,16.144-22.568C176.92,62.808,194.432,80,216,80V64c-13.232,0-24-10.768-24-24s10.768-24,24-24
				s24,10.768,24,24v136c0,17.648-14.352,32-32,32s-32-14.352-32-32s14.352-32,32-32v-16c-19.008,0-35.416,11.128-43.184,27.184
				C161.888,152.248,160,148.328,160,144c0-2.44,0.624-4.88,1.864-7.272l3.848-7.464l-7.64-3.496
				C149.52,121.872,144,113.328,144,104C144,97.48,146.704,91.328,151.264,86.864z"/>
			<rect x="32" y="448" width="16" height="16"/>
			<rect x="64" y="448" width="16" height="16"/>
			<rect x="96" y="448" width="16" height="16"/>
		</g>
	</g>
</g>
<g>
</g>
<g>
</g>
<g>
</g>
<g>
</g>
<g>
</g>
<g>
</g>
<g>
</g>
<g>
</g>
<g>
</g>
<g>
</g>
<g>
</g>
<g>
</g>
<g>
</g>
<g>
</g>
<g>
</g>
</svg>
