<?xml version="1.0" encoding="UTF-8" standalone="no"?>
<!-- Created with Inkscape (http://www.inkscape.org/) -->

<svg
   version="1.1"
   id="svg293"
   width="512"
   height="512"
   viewBox="0 0 512 512"
   sodipodi:docname="joystick_on.svg"
   inkscape:version="1.1.1 (eb90963e84, 2021-10-02)"
   xmlns:inkscape="http://www.inkscape.org/namespaces/inkscape"
   xmlns:sodipodi="http://sodipodi.sourceforge.net/DTD/sodipodi-0.dtd"
   xmlns="http://www.w3.org/2000/svg"
   xmlns:svg="http://www.w3.org/2000/svg">
  <sodipodi:namedview
     id="namedview3882"
     pagecolor="#ffffff"
     bordercolor="#666666"
     borderopacity="1.0"
     inkscape:pageshadow="2"
     inkscape:pageopacity="0.0"
     inkscape:pagecheckerboard="0"
     showgrid="false"
     inkscape:zoom="1.6484375"
     inkscape:cx="255.69668"
     inkscape:cy="256.30332"
     inkscape:window-width="1848"
     inkscape:window-height="1016"
     inkscape:window-x="72"
     inkscape:window-y="27"
     inkscape:window-maximized="1"
     inkscape:current-layer="g299" />
  <defs
     id="defs297" />
  <g
     id="g299">
    <path
       style="display:inline;fill:#000000"
       d="m 45.240245,509.88988 c -4.349241,-2.15283 -7.406046,-5.56557 -9.191554,-10.26181 -0.612732,-1.61161 -1.030752,-20.96315 -1.077502,-49.88112 l -0.07638,-47.24797 27.967523,-77.63464 c 15.382138,-42.69905 28.634736,-78.92488 29.450218,-80.50185 1.774553,-3.43161 4.082388,-5.56173 8.38779,-7.7419 2.81125,-1.42356 8.73822,-1.62059 48.75,-1.62059 H 195 v -32.91483 -32.91483 l -4.93162,-3.62015 C 179.65607,157.90686 168.448,143.21155 163.05373,130.13029 157.50341,116.67063 156.49984,110.92868 156.56416,93 c 0.054,-15.052544 0.30032,-17.289522 2.80786,-25.5 9.90662,-32.437434 35.06259,-56.620753 67.32663,-64.7234619 12.20652,-3.06551343 33.14025,-3.01736639 44.80135,0.103042 8.88197,2.3767363 22.00251,8.3245719 29.25941,13.2639459 6.87575,4.679947 18.77171,16.397591 23.87078,23.512954 13.06144,18.226281 19.37927,43.542229 16.43491,65.85579 -3.04781,23.09757 -14.22541,44.08857 -30.87752,57.98652 L 303,169.49759 V 202.24879 235 h 52.53984 c 50.31863,0 52.70326,0.0834 56.40547,1.9721 4.88809,2.49372 7.4178,5.71475 10.1006,12.86089 7.56101,20.14018 53.51755,148.58903 54.61481,152.64876 1.15495,4.27321 1.1326,5.71738 -0.15713,10.15391 C 475.27636,416.85718 475,425.18474 475,457.94375 c 0,37.41123 -0.12855,40.3878 -1.89359,43.84609 -2.33893,4.58273 -4.61059,6.68722 -9.36089,8.67202 -3.27227,1.36724 -26.48924,1.53805 -208.9634,1.53735 L 49.5,511.99842 Z M 438,450.5 V 426 H 255 72 v 24.5 24.5 h 183 183 z m -9.04538,-72.75 c -2.19969,-6.1875 -11.57348,-32.4 -20.83064,-58.25 l -16.8312,-47 -44.14639,-0.2604 L 303,271.9792 v 28.29851 c 0,27.37524 -0.0734,28.44217 -2.25,32.70186 -1.2375,2.42184 -3.51999,5.32969 -5.0722,6.46189 -2.73069,1.99179 -4.2242,2.06762 -46.05741,2.33867 l -43.2352,0.28013 -3.35065,-2.28013 c -1.84285,-1.25407 -4.29202,-3.54974 -5.44259,-5.10149 -1.99621,-2.69224 -2.10532,-4.19107 -2.38402,-32.75 L 194.91586,272 157.70793,272.0125 120.5,272.025 100.08636,329.26251 C 88.858862,360.74312 79.473217,387.0625 79.229374,387.75 78.87577,388.74696 114.63304,389 255.87004,389 H 432.95406 Z M 266,246.04931 v -59.95069 l -11.75,0.56648 c -6.4625,0.31156 -14.1125,0.1258 -17,-0.4128 L 232,185.27303 V 245.63651 306 h 17 17 z m -4.79922,-97.14628 c 9.74248,-2.01677 19.4737,-7.47648 27.21726,-15.27028 C 299.67269,122.30508 305,109.41157 305,93.5 305,60.52638 277.03488,34.743731 244.06866,37.323913 230.63731,38.375151 219.79594,43.27158 209.76693,52.816061 198.74791,63.302709 193.1884,75.302663 192.30818,90.5 c -1.60331,27.68139 16.57064,52.04264 43.60394,58.44886 5.24981,1.24407 19.17939,1.21883 25.28866,-0.0458 z"
       id="path303" />
    <path
       style="fill:#ff6600;stroke-width:0.606635"
       d="m 242.10274,149.01846 c -0.17577,-0.2844 -2.16969,-0.68986 -4.43093,-0.90102 -2.26124,-0.21115 -4.20368,-0.66092 -4.31654,-0.99949 -0.11285,-0.33857 -0.8488,-0.61558 -1.63542,-0.61558 -0.78663,0 -1.57983,-0.24204 -1.76266,-0.53787 -0.18283,-0.29582 -1.29088,-0.71767 -2.46234,-0.93744 -1.17146,-0.21976 -2.13094,-0.59194 -2.13219,-0.82706 -0.001,-0.23512 -1.29794,-0.9596 -2.88152,-1.60997 -1.58359,-0.65036 -3.15223,-1.39696 -3.48588,-1.6591 -0.33365,-0.26214 -1.465,-1.1632 -2.51411,-2.00236 -1.04911,-0.83915 -2.09725,-1.52573 -2.32919,-1.52573 -0.59109,0 -8.80599,-8.32571 -8.80599,-8.92478 0,-0.26975 -0.61422,-1.18461 -1.36493,-2.03301 -1.72182,-1.9459 -2.81691,-3.60747 -3.2732,-4.96638 -0.19605,-0.58388 -0.57591,-1.06161 -0.84414,-1.06161 -0.26822,0 -0.66755,-0.81896 -0.8874,-1.8199 -0.21984,-1.00095 -0.65101,-1.81991 -0.95815,-1.81991 -0.30714,0 -0.55843,-0.54597 -0.55843,-1.21327 0,-0.6673 -0.24199,-1.21327 -0.53776,-1.21327 -0.29577,0 -0.72102,-1.22207 -0.945,-2.71572 -0.22399,-1.49364 -0.66446,-2.87468 -0.97883,-3.06898 -0.31438,-0.19429 -0.57159,-1.13335 -0.57159,-2.0868 0,-0.95346 -0.29573,-1.83213 -0.65719,-1.95261 -0.91123,-0.30375 -0.91123,-20.692578 0,-20.996321 0.36146,-0.120485 0.65719,-1.135653 0.65719,-2.25593 0,-1.120278 0.24149,-2.186115 0.53664,-2.368528 0.29515,-0.182414 0.72135,-1.563453 0.94712,-3.068977 0.22577,-1.505525 0.66675,-2.737318 0.97995,-2.737318 0.31321,0 0.56947,-0.52986 0.56947,-1.177468 0,-0.647608 0.25198,-1.333203 0.55996,-1.523545 0.30798,-0.190341 0.73915,-1.161903 0.95815,-2.159024 0.21901,-0.997122 0.6065,-1.812949 0.8611,-1.812949 0.2546,0 0.97745,-0.95545 1.60634,-2.123222 0.62888,-1.167773 1.35434,-2.123223 1.61211,-2.123223 0.25778,0 0.46869,-0.283534 0.46869,-0.630074 0,-0.346541 1.09194,-1.766461 2.42654,-3.155379 1.33459,-1.388918 2.42654,-2.820935 2.42654,-3.182259 0,-0.361325 0.75071,-1.106305 1.66824,-1.655512 0.91754,-0.549206 2.64641,-1.904746 3.84195,-3.012311 2.50708,-2.322604 4.06057,-3.418257 5.5609,-3.922024 0.58388,-0.196052 1.06161,-0.568012 1.06161,-0.826576 0,-0.258566 0.68246,-0.641407 1.51659,-0.850758 0.83412,-0.209352 1.51658,-0.648425 1.51658,-0.975717 0,-0.327292 0.40022,-0.595077 0.88937,-0.595077 0.79827,0 3.8398,-1.154846 6.45275,-2.45006 0.53485,-0.265119 2.24437,-0.67277 3.79893,-0.905891 1.55456,-0.233121 2.97573,-0.665343 3.15814,-0.960493 0.18241,-0.29515 2.36294,-0.536637 4.84562,-0.536637 2.60488,0 4.51396,-0.256562 4.51396,-0.606635 0,-0.762017 1.98873,-0.796063 2.76019,-0.04725 0.31697,0.307661 2.4872,0.68994 4.82275,0.84951 4.47333,0.305628 11.31556,1.591758 11.82938,2.22356 0.16683,0.20513 1.66825,0.882999 3.3365,1.506376 1.66824,0.623375 3.85213,1.636882 4.85308,2.252237 1.00095,0.615354 2.29763,1.283333 2.88151,1.484396 0.58389,0.201063 1.06162,0.606717 1.06162,0.901451 0,0.294736 0.41128,0.535883 0.91396,0.535883 0.50268,0 1.50736,0.682465 2.23262,1.516588 0.72526,0.834123 1.57398,1.516587 1.88603,1.516587 0.60782,0 5.21105,4.71856 7.70672,7.899805 0.83412,1.06326 1.85782,2.29464 2.27488,2.7364 0.41706,0.44176 0.7583,1.095685 0.7583,1.453166 0,0.357481 0.26778,0.649966 0.59508,0.649966 0.32729,0 0.76636,0.682464 0.97571,1.516588 0.20935,0.834123 0.62403,1.516587 0.92151,1.516587 0.29748,0 0.54087,0.409479 0.54087,0.909953 0,0.500474 0.24261,0.909952 0.53913,0.909952 0.29651,0 0.71836,0.955451 0.93743,2.123223 0.21908,1.167773 0.65894,2.123223 0.97747,2.123223 0.31853,0 0.57915,0.682464 0.57915,1.516588 0,0.834123 0.24199,1.516587 0.53776,1.516587 0.29576,0 0.73078,1.296683 0.96672,2.881517 0.23593,1.584834 0.74117,3.260505 1.12274,3.723712 0.95762,1.162487 0.97461,21.999303 0.0189,23.178223 -0.3797,0.46839 -0.88305,2.28479 -1.11854,4.03645 -0.23549,1.75166 -0.67554,3.18484 -0.97788,3.18484 -0.30234,0 -0.54971,0.34058 -0.54971,0.75685 0,1.14318 -4.98411,10.75826 -6.36967,12.28804 -0.66729,0.73676 -1.69956,1.9931 -2.29391,2.79188 -1.5652,2.10355 -8.32921,9.03513 -8.81756,9.036 -0.22803,4.1e-4 -1.20776,0.68287 -2.1772,1.51659 -0.96943,0.83372 -2.12962,1.51585 -2.57819,1.51585 -0.44858,0 -0.8156,0.24115 -0.8156,0.53588 0,0.29474 -0.47773,0.69629 -1.06161,0.89234 -0.58389,0.19606 -1.47109,0.61465 -1.97157,0.93022 -1.42393,0.89784 -5.26857,2.49464 -6.00639,2.49464 -0.36664,0 -0.66662,0.27299 -0.66662,0.60663 0,0.33365 -0.68246,0.60664 -1.51658,0.60664 -0.83413,0 -1.51659,0.25422 -1.51659,0.56495 0,0.31072 -2.18989,0.75597 -4.86641,0.98944 -2.67653,0.23348 -5.01301,0.66172 -5.1922,0.95164 -0.42138,0.68182 -12.21389,0.6912 -12.63486,0.0101 z"
       id="path452" />
    <path
       style="fill:#ff6600;stroke-width:0.606635"
       d="m 232.64455,245.31313 v -58.91435 l 1.36493,0.4491 c 0.75071,0.24701 4.29908,0.72729 7.88527,1.0673 6.50891,0.61711 19.53135,0.003 21.83985,-1.02973 1.00703,-0.45055 1.06161,2.55368 1.06161,58.43353 v 58.90851 h -16.07583 -16.07583 z"
       id="path491" />
    <path
       style="fill:#ff6600;stroke-width:0.606635"
       d="m 80.379147,386.72986 c 0,-0.33365 0.256259,-0.60664 0.569465,-0.60664 0.313205,0 0.75368,-1.22843 0.978832,-2.72986 0.225152,-1.50142 0.651357,-2.72985 0.947123,-2.72985 0.295765,0 0.537755,-0.68247 0.537755,-1.51659 0,-0.83412 0.256259,-1.51659 0.569465,-1.51659 0.313206,0 0.75368,-1.22843 0.978832,-2.72986 0.225152,-1.50142 0.651358,-2.72985 0.947123,-2.72985 0.295766,0 0.537756,-0.68247 0.537756,-1.51659 0,-0.83412 0.256259,-1.51659 0.569464,-1.51659 0.313206,0 0.753681,-1.22844 0.978833,-2.72986 0.225152,-1.50142 0.651357,-2.72985 0.947123,-2.72985 0.295765,0 0.537755,-0.52986 0.537755,-1.17747 0,-0.64761 0.257213,-1.33644 0.571585,-1.53073 0.314372,-0.19429 0.754846,-1.57533 0.978832,-3.06898 0.223986,-1.49364 0.649238,-2.71572 0.945003,-2.71572 0.295766,0 0.537755,-0.68246 0.537755,-1.51658 0,-0.83413 0.242605,-1.51659 0.539122,-1.51659 0.296518,0 0.724671,-0.98906 0.951452,-2.19791 0.226781,-1.20884 0.666641,-2.71027 0.977465,-3.33649 0.310826,-0.62622 0.83299,-1.67264 1.160366,-2.32537 0.327376,-0.65272 0.771745,-2.29063 0.987486,-3.63981 0.215741,-1.34916 0.630352,-2.45303 0.921358,-2.45303 0.291006,0 0.529102,-0.63029 0.529102,-1.40064 0,-0.77035 0.400797,-1.93054 0.89066,-2.5782 0.489863,-0.64765 0.899341,-1.79177 0.909951,-2.54248 0.0106,-0.75072 0.26666,-1.36493 0.569,-1.36493 0.30234,0 0.73744,-1.36493 0.96688,-3.03318 0.22944,-1.66825 0.66454,-3.03317 0.96688,-3.03317 0.30234,0 0.54971,-0.68247 0.54971,-1.51659 0,-0.83413 0.26976,-1.51659 0.59947,-1.51659 0.3297,0 0.77407,-1.09194 0.98748,-2.42654 0.21341,-1.3346 0.62612,-2.42654 0.91712,-2.42654 0.29101,0 0.5291,-0.68246 0.5291,-1.51659 0,-0.83412 0.24199,-1.51659 0.53776,-1.51659 0.29577,0 0.73201,-1.29668 0.96943,-2.88151 0.23742,-1.58484 0.62844,-3.01801 0.86894,-3.18484 0.67308,-0.46688 2.47696,-5.33552 2.47696,-6.68526 0,-0.66054 0.27298,-1.20099 0.60663,-1.20099 0.33365,0 0.60664,-0.51477 0.60664,-1.14393 0,-0.62916 0.40779,-1.92584 0.90621,-2.88152 0.49842,-0.95567 0.9079,-2.16981 0.90995,-2.69809 0.002,-0.52828 0.18489,-1.14165 0.40629,-1.36306 0.61974,-0.61973 2.63063,-6.5931 2.63063,-7.81429 0,-0.59669 0.25129,-1.08489 0.55843,-1.08489 0.30714,0 0.73252,-0.88721 0.94528,-1.97157 0.36411,-1.85568 0.82422,-3.11904 2.31977,-6.36967 l 0.62798,-1.36493 h 36.2956 36.29559 v 29.72512 c 0,16.58136 0.23471,29.72512 0.53081,29.72512 0.29194,0 0.68424,0.75071 0.87177,1.66825 0.69637,3.40711 7.07008,8.64455 10.52001,8.64455 0.78286,0 1.42338,0.27298 1.42338,0.60663 0,0.83709 81.6817,0.83709 82.19905,0 0.20621,-0.33365 1.04128,-0.60663 1.85571,-0.60663 0.81443,0 1.48079,-0.27299 1.48079,-0.60664 0,-0.33365 0.54542,-0.60663 1.21204,-0.60663 2.10125,0 7.88748,-6.43721 7.88748,-8.77487 0,-0.51221 0.27299,-0.93129 0.60664,-0.93129 0.39608,0 0.60663,-10.21169 0.60663,-29.4218 v -29.42181 l 43.22275,0.005 43.22275,0.005 0.75829,1.63279 c 0.41707,0.89804 0.7583,2.12435 0.7583,2.72513 0,0.60078 0.25626,1.09233 0.56946,1.09233 0.31321,0 0.75368,1.22844 0.97883,2.72986 0.22516,1.50142 0.65136,2.72986 0.94713,2.72986 0.29576,0 0.54743,0.61421 0.55925,1.36492 0.0118,0.75072 0.41163,2.0474 0.88846,2.88152 0.47682,0.83412 0.87663,2.13081 0.88845,2.88152 0.0118,0.75071 0.2641,1.36493 0.56062,1.36493 0.29652,0 0.72467,0.98905 0.95145,2.1979 0.22678,1.20885 0.66664,2.71027 0.97747,3.33649 0.31082,0.62623 0.81945,1.65096 1.13027,2.27718 0.31083,0.62622 0.75125,2.13066 0.97872,3.34319 0.22748,1.21254 0.65563,2.3542 0.95145,2.53703 0.29583,0.18283 0.53787,0.86228 0.53787,1.50989 0,0.6476 0.2381,1.17746 0.5291,1.17746 0.29101,0 0.70562,1.10387 0.92136,2.45304 0.21574,1.34917 0.63716,2.91884 0.93648,3.48815 1.39537,2.65395 2.46614,5.5796 2.46614,6.73817 0,0.70029 0.27299,1.27325 0.60664,1.27325 0.33364,0 0.60663,0.68246 0.60663,1.51659 0,0.83412 0.23727,1.51659 0.52726,1.51659 0.28999,0 0.68562,0.97584 0.87917,2.16854 0.39957,2.46222 1.72309,5.71771 2.32454,5.71771 0.22089,0 0.58935,1.36493 0.81879,3.03318 0.22944,1.66824 0.66454,3.03317 0.96688,3.03317 0.30234,0 0.54971,0.54045 0.54971,1.20099 0,1.31037 1.79003,6.19691 2.44893,6.68527 0.22508,0.16682 0.60379,1.36062 0.84156,2.65288 0.23777,1.29226 0.65478,2.79368 0.92668,3.33649 1.10784,2.21168 1.79886,4.12375 2.16537,5.99167 0.21277,1.08436 0.63815,1.97156 0.94529,1.97156 0.30713,0 0.55843,0.68247 0.55843,1.51659 0,0.83413 0.24199,1.51659 0.53775,1.51659 0.29577,0 0.72102,1.22207 0.945,2.71572 0.22399,1.49364 0.66447,2.87468 0.97884,3.06898 0.31437,0.19429 0.57158,1.01961 0.57158,1.83404 0,0.81443 0.26976,1.48079 0.59947,1.48079 0.3297,0 0.77408,1.09194 0.98748,2.42654 0.21341,1.33459 0.62612,2.42654 0.91713,2.42654 0.291,0 0.5291,0.68246 0.5291,1.51658 0,0.83413 0.21907,1.51659 0.48683,1.51659 0.26777,0 0.76645,1.36493 1.10818,3.03318 l 0.62134,3.03317 H 255.59159 c -116.40387,0 -175.212443,-0.20361 -175.212443,-0.60663 z"
       id="path530" />
    <path
       style="fill:#ff6600;stroke-width:0.606635"
       d="M 72.492891,450.72986 V 426.76777 H 255.09005 437.6872 v 23.96209 23.96208 H 255.09005 72.492891 Z"
       id="path842" />
  </g>
</svg>
