<?xml version="1.0" encoding="UTF-8" standalone="no"?>
<!-- Created with Inkscape (http://www.inkscape.org/) -->

<svg
   width="10.583333mm"
   height="10.583333mm"
   viewBox="0 0 10.583333 10.583333"
   version="1.1"
   id="svg1"
   xml:space="preserve"
   sodipodi:docname="vacuum.svg"
   inkscape:version="1.3.2 (091e20ef0f, 2023-11-25)"
   xmlns:inkscape="http://www.inkscape.org/namespaces/inkscape"
   xmlns:sodipodi="http://sodipodi.sourceforge.net/DTD/sodipodi-0.dtd"
   xmlns="http://www.w3.org/2000/svg"
   xmlns:svg="http://www.w3.org/2000/svg"><sodipodi:namedview
     id="namedview1"
     pagecolor="#505050"
     bordercolor="#eeeeee"
     borderopacity="1"
     inkscape:showpageshadow="0"
     inkscape:pageopacity="0"
     inkscape:pagecheckerboard="0"
     inkscape:deskcolor="#505050"
     inkscape:document-units="mm"
     showguides="true"
     inkscape:zoom="24.225001"
     inkscape:cx="19.97936"
     inkscape:cy="19.999999"
     inkscape:window-width="2048"
     inkscape:window-height="1211"
     inkscape:window-x="0"
     inkscape:window-y="0"
     inkscape:window-maximized="1"
     inkscape:current-layer="layer1"><sodipodi:guide
       position="-1.0048159,9.3273128"
       orientation="0,-1"
       id="guide13"
       inkscape:locked="false" /></sodipodi:namedview><defs
     id="defs1" /><g
     id="layer1"
     transform="translate(-60.558271,-48.253915)"><path
       sodipodi:type="star"
       style="fill:#000000;fill-opacity:0;stroke:#7e7e7e;stroke-width:0.05289263;stroke-linecap:square;stroke-dasharray:none;stroke-opacity:1"
       id="path13"
       inkscape:flatsided="false"
       sodipodi:sides="19"
       sodipodi:cx="0.58986861"
       sodipodi:cy="0.6699484"
       sodipodi:r1="0.62879902"
       sodipodi:r2="0.0062879901"
       sodipodi:arg1="1.3608924"
       sodipodi:arg2="1.5262394"
       inkscape:rounded="0.03"
       inkscape:randomized="0"
       d="M 0.7208889,1.2849459 C 0.70262094,1.2888377 0.60880808,0.67539819 0.59014869,0.67623015 0.57148929,0.6770621 0.53264235,1.2964165 0.51410051,1.2941658 0.49555867,1.2919152 0.60601234,0.68125254 0.58809383,0.67598073 0.57017532,0.67070891 0.33232918,1.2438914 0.31552276,1.2357421 0.29871635,1.2275929 0.60146718,0.68588192 0.5862313,0.67507761 0.57099542,0.66427331 0.1599244,1.1291706 0.14667465,1.1160059 0.1334249,1.1028412 0.59566513,0.68878464 0.58476292,0.67361866 0.57386072,0.65845268 0.03411075,0.96468604 0.02585347,0.94793246 0.0175962,0.93117888 0.58923494,0.68964617 0.58384783,0.67176199 c -0.005387,-0.0178842 -0.61532574,0.0965001 -0.61769574,0.0779731 -0.00237,-0.018527 0.61672133,-0.061362 0.61743309,-0.0800263 7.1177e-4,-0.0186644 -0.61331922,-0.10852451 -0.60954511,-0.12681716 0.0037741,-0.0182927 0.60322986,0.14221189 0.60996337,0.12478992 0.006734,-0.017422 -0.54485005,-0.30178878 -0.53534081,-0.31786483 0.0095092,-0.016076 0.52436908,0.33037487 0.53639465,0.31608324 C 0.59708285,0.65160832 0.16771937,0.2035504 0.18193325,0.19143303 0.19614713,0.17931567 0.57061802,0.67416964 0.5866325,0.66455707 0.60264698,0.6549445 0.34203176,0.0917495 0.35941,0.08490392 0.37678824,0.07805835 0.57029044,0.66769027 0.5885584,0.66379842 0.60682637,0.65990658 0.54320112,0.04260541 0.56186051,0.04177346 0.5805199,0.0409415 0.57208445,0.6614556 0.59062629,0.66370622 0.60916812,0.66595685 0.74942763,0.06144368 0.76734614,0.0667155 0.78526465,0.07198731 0.57580565,0.65614126 0.59261206,0.66429046 0.60941848,0.67243967 0.93836344,0.14622287 0.95359932,0.15702718 0.9688352,0.16783148 0.58105079,0.65232313 0.59430054,0.66548782 0.6075503,0.67865252 1.0895344,0.28775585 1.1004366,0.30292184 1.1113388,0.31808782 0.58725148,0.65041498 0.59550876,0.66716856 0.60376603,0.68392214 1.1865589,0.47070533 1.191946,0.48858951 c 0.00539,0.0178842 -0.59821022,0.16203406 -0.59584023,0.18056102 0.00237,0.018527 0.62281693,0.006095 0.62210513,0.0247597 C 1.2174991,0.71257461 0.599801,0.65292631 0.59602689,0.67121897 0.59225278,0.68951162 1.1831187,0.87921237 1.1763852,0.89663433 1.1696517,0.9140563 0.6047899,0.65707366 0.59528066,0.67314972 0.58577143,0.68922577 1.0830269,1.0605019 1.0710013,1.0747935 1.0589757,1.0890851 0.60816184,0.66261619 0.59394796,0.67473355 0.57973407,0.68685092 0.92949369,1.1994688 0.91347921,1.2090814 0.89746474,1.218694 0.60955143,0.66895327 0.59217319,0.67579884 0.57479495,0.68264442 0.73915687,1.281054 0.7208889,1.2849459 Z"
       inkscape:transform-center-x="0.088699689"
       inkscape:transform-center-y="0.0061664237"
       transform="matrix(3.0423763,0,0,3.0403866,60.733514,48.20519)"
       inkscape:label="Top mop" /><path
       sodipodi:type="star"
       style="fill:#000000;fill-opacity:0;stroke:#7e7e7e;stroke-width:0.0529167;stroke-linecap:square;stroke-dasharray:none;stroke-opacity:1"
       id="path13-5"
       inkscape:flatsided="false"
       sodipodi:sides="19"
       sodipodi:cx="0.58986861"
       sodipodi:cy="0.6699484"
       sodipodi:r1="0.62879902"
       sodipodi:r2="0.0062879901"
       sodipodi:arg1="1.3608924"
       sodipodi:arg2="1.5262394"
       inkscape:rounded="0.03"
       inkscape:randomized="0"
       d="M 0.7208889,1.2849459 C 0.70262094,1.2888377 0.60880808,0.67539819 0.59014869,0.67623015 0.57148929,0.6770621 0.53264235,1.2964165 0.51410051,1.2941658 0.49555867,1.2919152 0.60601234,0.68125254 0.58809383,0.67598073 0.57017532,0.67070891 0.33232918,1.2438914 0.31552276,1.2357421 0.29871635,1.2275929 0.60146718,0.68588192 0.5862313,0.67507761 0.57099542,0.66427331 0.1599244,1.1291706 0.14667465,1.1160059 0.1334249,1.1028412 0.59566513,0.68878464 0.58476292,0.67361866 0.57386072,0.65845268 0.03411075,0.96468604 0.02585347,0.94793246 0.0175962,0.93117888 0.58923494,0.68964617 0.58384783,0.67176199 c -0.005387,-0.0178842 -0.61532574,0.0965001 -0.61769574,0.0779731 -0.00237,-0.018527 0.61672133,-0.061362 0.61743309,-0.0800263 7.1177e-4,-0.0186644 -0.61331922,-0.10852451 -0.60954511,-0.12681716 0.0037741,-0.0182927 0.60322986,0.14221189 0.60996337,0.12478992 0.006734,-0.017422 -0.54485005,-0.30178878 -0.53534081,-0.31786483 0.0095092,-0.016076 0.52436908,0.33037487 0.53639465,0.31608324 C 0.59708285,0.65160832 0.16771937,0.2035504 0.18193325,0.19143303 0.19614713,0.17931567 0.57061802,0.67416964 0.5866325,0.66455707 0.60264698,0.6549445 0.34203176,0.0917495 0.35941,0.08490392 0.37678824,0.07805835 0.57029044,0.66769027 0.5885584,0.66379842 0.60682637,0.65990658 0.54320112,0.04260541 0.56186051,0.04177346 0.5805199,0.0409415 0.57208445,0.6614556 0.59062629,0.66370622 0.60916812,0.66595685 0.74942763,0.06144368 0.76734614,0.0667155 0.78526465,0.07198731 0.57580565,0.65614126 0.59261206,0.66429046 0.60941848,0.67243967 0.93836344,0.14622287 0.95359932,0.15702718 0.9688352,0.16783148 0.58105079,0.65232313 0.59430054,0.66548782 0.6075503,0.67865252 1.0895344,0.28775585 1.1004366,0.30292184 1.1113388,0.31808782 0.58725148,0.65041498 0.59550876,0.66716856 0.60376603,0.68392214 1.1865589,0.47070533 1.191946,0.48858951 c 0.00539,0.0178842 -0.59821022,0.16203406 -0.59584023,0.18056102 0.00237,0.018527 0.62281693,0.006095 0.62210513,0.0247597 C 1.2174991,0.71257461 0.599801,0.65292631 0.59602689,0.67121897 0.59225278,0.68951162 1.1831187,0.87921237 1.1763852,0.89663433 1.1696517,0.9140563 0.6047899,0.65707366 0.59528066,0.67314972 0.58577143,0.68922577 1.0830269,1.0605019 1.0710013,1.0747935 1.0589757,1.0890851 0.60816184,0.66261619 0.59394796,0.67473355 0.57973407,0.68685092 0.92949369,1.1994688 0.91347921,1.2090814 0.89746474,1.218694 0.60955143,0.66895327 0.59217319,0.67579884 0.57479495,0.68264442 0.73915687,1.281054 0.7208889,1.2849459 Z"
       inkscape:transform-center-x="0.088008018"
       inkscape:transform-center-y="-0.060160341"
       transform="matrix(2.1677433,2.1346995,-2.1333034,2.1663257,62.697613,54.091689)"
       inkscape:label="Bottom mop" /><circle
       style="fill:#020200;fill-opacity:0.960511;stroke:#000000;stroke-width:0;stroke-dasharray:none"
       id="path1"
       cx="65.849937"
       cy="53.545582"
       r="5.2916665" /><circle
       style="display:inline;fill:#999999;fill-opacity:1;stroke:#000000;stroke-width:0;stroke-dasharray:none"
       id="path2"
       cx="65.849937"
       cy="53.545582"
       r="5.0270834" /><path
       style="display:inline;fill:#ffffff;fill-opacity:0;stroke:#000000;stroke-width:0.258178;stroke-linecap:square;stroke-dasharray:none"
       d="m 63.754892,58.116103 -0.847405,-1.901522 c -1.352448,-1.921392 -1.355109,-3.673867 0,-5.329751 l 0.847405,-1.909769"
       id="path10" /><path
       style="fill:#000000;fill-opacity:1;stroke:#000000;stroke-width:0.372;stroke-linecap:square;stroke-dasharray:none;stroke-opacity:1"
       d="M 10.494564,36.397155 C 8.5607063,35.253881 6.8430687,33.806843 5.4489774,32.146462 4.1993031,30.658083 2.847985,28.317829 2.1698833,26.467627 1.8260832,25.529568 1.3865053,23.782511 1.2305157,22.734209 1.0422643,21.469097 1.0067215,19.234478 1.1545107,17.955681 1.5165231,14.823244 2.5031579,12.102162 4.199762,9.5570562 5.3344347,7.8549131 6.6580593,6.3978592 8.1452183,5.2138739 9.2260396,4.3533899 11.258502,3.0542217 11.258502,3.2238348 c 0,0.028291 -0.637091,1.4853703 -1.4157579,3.2379543 -1.2024522,2.7064183 -1.4789689,3.2696373 -1.8353047,3.7382079 -1.1649039,1.531812 -2.192469,3.389715 -2.7124413,4.904266 -1.5940353,4.64303 -0.7115344,9.450401 2.6765838,14.580533 0.3370671,0.510371 0.8196514,1.506858 1.8705895,3.862575 0.7789816,1.746117 1.4163306,3.187821 1.4163306,3.203786 0,0.07638 -0.166279,-6.72e-4 -0.763938,-0.354002 z"
       id="path11"
       transform="matrix(0.26458333,0,0,0.26458333,60.558271,48.253915)" /><g
       id="g11"
       transform="matrix(-1.9139739e-6,-0.00103282,0.00103282,-1.9139739e-6,63.139535,56.653409)"><g
         id="layer101"
         fill="#0bbd0b"
         stroke="none"><path
           d="m 2050,4059 c -270,-29 -493,-254 -519,-524 -23,-229 79,-441 272,-566 88,-57 165,-80 287,-86 187,-9 315,40 445,171 124,124 175,247 175,416 0,359 -301,627 -660,589 z m 185,-154 c 219,-57 365,-283 327,-505 -60,-353 -483,-500 -744,-260 -227,207 -186,566 82,723 94,54 223,71 335,42 z"
           id="path1-3" /></g><g
         id="layer102"
         fill="#0891f8"
         stroke="none"><path
           d="m 2208,4290 c -239,-38 -442,-143 -605,-313 -134,-140 -211,-278 -265,-474 -18,-64 -21,-107 -22,-243 -1,-142 2,-177 23,-254 50,-191 126,-328 260,-468 219,-229 496,-341 805,-325 266,14 499,118 687,306 122,122 200,246 253,406 191,569 -146,1189 -729,1340 -112,29 -306,41 -407,25 z m 312,-151 c 327,-59 606,-314 700,-639 31,-107 38,-307 15,-421 -55,-273 -233,-507 -480,-631 -137,-69 -337,-106 -486,-89 -126,14 -202,36 -314,91 -371,179 -570,594 -479,1000 18,82 54,180 65,180 5,0 9,6 9,13 0,24 58,133 103,192 46,61 126,127 207,172 25,13 63,35 85,49 60,36 215,83 308,93 88,9 179,6 267,-10 z"
           id="path2-6" /></g><g
         id="layer103"
         fill="#082693"
         stroke="none"><path
           d="m 1220,5730 c 0,-46 2,-50 24,-50 14,0 38,-11 53,-24 l 28,-24 3,-262 4,-261 61,3 62,3 3,255 c 2,214 0,262 -13,297 -28,72 -96,113 -187,113 h -38 z"
           id="path3" /><path
           d="m 1644,5632 c -45,-28 -73,-73 -86,-136 -28,-133 50,-256 162,-256 35,0 105,33 113,52 3,7 6,-33 6,-89 l 1,-103 h 65 65 v 270 270 h -65 c -59,0 -65,-2 -65,-21 0,-20 0,-20 -32,2 -44,32 -123,37 -164,11 z m 171,-97 c 22,-21 25,-33 25,-90 0,-57 -3,-69 -25,-90 -31,-32 -66,-32 -102,-1 -25,22 -28,30 -28,89 0,55 4,69 24,91 32,34 74,34 106,1 z"
           id="path4" /><path
           d="m 2173,5634 c -129,-48 -165,-234 -64,-335 82,-83 240,-78 314,10 29,35 47,88 47,139 v 32 h -145 c -160,0 -167,3 -121,57 22,25 30,28 88,27 41,0 79,-8 111,-22 l 47,-21 v 48 c 0,46 -1,48 -37,60 -63,20 -192,23 -240,5 z m 167,-248 c 0,-8 -8,-24 -19,-37 -27,-34 -86,-32 -117,5 -13,15 -24,31 -24,37 0,5 36,9 80,9 62,0 80,-3 80,-14 z"
           id="path5" /><path
           d="m 3225,5635 c -130,-46 -168,-235 -66,-336 107,-107 322,-62 360,76 51,185 -108,326 -294,260 z m 146,-101 c 20,-22 24,-36 24,-89 0,-53 -4,-67 -24,-89 -16,-17 -35,-26 -56,-26 -21,0 -40,9 -56,26 -20,22 -24,36 -24,89 0,53 4,67 24,89 16,17 35,26 56,26 21,0 40,-9 56,-26 z"
           id="path6" /><path
           d="m 3795,5634 c -16,-8 -38,-23 -47,-31 -17,-15 -18,-14 -18,10 0,26 -2,27 -60,27 h -60 v -270 -270 h 60 60 v 101 100 l 37,-28 c 48,-36 135,-40 180,-7 113,84 102,307 -17,369 -37,19 -97,19 -135,-1 z m 76,-100 c 20,-22 24,-36 24,-91 0,-59 -3,-67 -28,-89 -52,-45 -111,-21 -127,51 -26,114 63,202 131,129 z"
           id="path7" /><path
           d="m 4215,5635 c -130,-46 -168,-235 -66,-336 107,-107 322,-62 360,76 51,185 -108,326 -294,260 z m 146,-101 c 20,-22 24,-36 24,-89 0,-53 -4,-67 -24,-89 -16,-17 -35,-26 -56,-26 -21,0 -40,9 -56,26 -20,22 -24,36 -24,89 0,53 4,67 24,89 16,17 35,26 56,26 21,0 40,-9 56,-26 z"
           id="path8" /><path
           d="m 2580,5380 v -260 h 133 c 182,1 235,22 259,102 16,53 -2,109 -46,145 l -34,27 24,19 c 20,16 124,202 124,222 0,3 -30,5 -67,3 l -68,-3 -42,-80 c -47,-91 -72,-115 -119,-115 h -33 l -3,98 -3,97 -62,3 -63,3 z m 245,-50 c 9,-7 15,-29 15,-51 0,-46 -18,-59 -84,-59 h -46 v 66 67 l 50,-5 c 27,-3 56,-11 65,-18 z"
           id="path9" /><path
           d="m 4670,5627 c -44,-22 -60,-70 -60,-184 v -103 h -30 c -29,0 -30,-2 -30,-45 0,-43 1,-45 30,-45 30,0 30,-1 30,-55 v -55 h 65 65 v 55 55 h 60 60 v 45 45 h -60 -61 l 3,103 3,102 53,3 52,3 v 45 44 h -77 c -43,0 -89,-6 -103,-13 z"
           id="path10-7" /></g><g
         id="layer104"
         fill="#ffa500"
         stroke="none"><path
           d="m 2540,4563 c -193,-19 -403,-79 -580,-165 -69,-34 -131,-62 -138,-64 -18,-4 -134,-98 -230,-189 -95,-89 -220,-241 -301,-365 -75,-115 -168,-299 -174,-346 -3,-22 -15,-84 -28,-139 -21,-89 -24,-124 -23,-315 0,-197 2,-224 26,-325 99,-413 323,-737 674,-974 385,-260 878,-345 1338,-231 520,128 944,499 1131,989 68,179 96,338 96,546 1,399 -142,760 -416,1055 -271,293 -632,473 -1040,520 -85,9 -257,11 -335,3 z m 325,-148 c 221,-18 480,-113 690,-252 126,-84 307,-264 388,-384 108,-163 181,-336 223,-529 14,-66 19,-127 18,-270 0,-164 -3,-198 -26,-296 -68,-289 -202,-521 -418,-727 -459,-436 -1160,-538 -1730,-252 -404,203 -686,565 -782,1003 -31,141 -31,405 0,549 62,285 216,569 408,754 141,135 377,271 583,338 213,69 388,87 646,66 z"
           id="path11-5" /></g><g
         id="layer105"
         fill="#ff0000"
         stroke="none"><path
           d="M 2845,4853 C 2495,4830 2103,4696 1802,4496 1277,4147 939,3613 843,2980 c -23,-157 -23,-454 0,-608 74,-475 281,-892 607,-1222 327,-330 719,-536 1185,-622 158,-29 554,-32 705,-5 491,86 908,305 1239,652 558,586 745,1419 489,2190 -214,648 -719,1157 -1363,1374 -285,96 -568,133 -860,114 z m 491,-166 c 344,-65 633,-190 893,-385 103,-78 278,-248 360,-351 382,-480 528,-1087 406,-1683 C 4760,1117 3600,407 2460,716 c -484,131 -920,459 -1192,896 -148,238 -251,535 -287,828 -16,122 -13,371 4,502 36,272 125,534 259,762 317,538 850,895 1478,991 123,19 499,14 614,-8 z"
           id="path12" /></g></g></g></svg>
