<?xml version="1.0" encoding="UTF-8" standalone="no"?>
<!-- Created with Inkscape (http://www.inkscape.org/) -->

<svg
   width="10.583333mm"
   height="10.583333mm"
   viewBox="0 0 10.583333 10.583333"
   version="1.1"
   id="svg1"
   xml:space="preserve"
   xmlns="http://www.w3.org/2000/svg"
   xmlns:svg="http://www.w3.org/2000/svg"><defs
     id="defs1" /><g
     id="layer1"
     transform="translate(-60.558271,-48.253915)"><circle
       style="fill:#020200;fill-opacity:0.960511;stroke:#000000;stroke-width:0;stroke-dasharray:none"
       id="path1"
       cx="65.849937"
       cy="53.545582"
       r="5.2916665" /><circle
       style="display:inline;fill:#999999;fill-opacity:1;stroke:#000000;stroke-width:0;stroke-dasharray:none"
       id="path2"
       cx="65.849937"
       cy="53.545582"
       r="5.0270834" /><path
       style="display:inline;fill:#ffffff;fill-opacity:0;stroke:#000000;stroke-width:0.258178;stroke-linecap:square;stroke-dasharray:none"
       d="m 63.754892,58.116103 -0.847405,-1.901522 c -1.352448,-1.921392 -1.355109,-3.673867 0,-5.329751 l 0.847405,-1.909769"
       id="path10" /><path
       style="fill:#000000;fill-opacity:1;stroke:#000000;stroke-width:0.372;stroke-linecap:square;stroke-dasharray:none;stroke-opacity:1"
       d="M 10.494564,36.397155 C 8.5607063,35.253881 6.8430687,33.806843 5.4489774,32.146462 4.1993031,30.658083 2.847985,28.317829 2.1698833,26.467627 1.8260832,25.529568 1.3865053,23.782511 1.2305157,22.734209 1.0422643,21.469097 1.0067215,19.234478 1.1545107,17.955681 1.5165231,14.823244 2.5031579,12.102162 4.199762,9.5570562 5.3344347,7.8549131 6.6580593,6.3978592 8.1452183,5.2138739 9.2260396,4.3533899 11.258502,3.0542217 11.258502,3.2238348 c 0,0.028291 -0.637091,1.4853703 -1.4157579,3.2379543 -1.2024522,2.7064183 -1.4789689,3.2696373 -1.8353047,3.7382079 -1.1649039,1.531812 -2.192469,3.389715 -2.7124413,4.904266 -1.5940353,4.64303 -0.7115344,9.450401 2.6765838,14.580533 0.3370671,0.510371 0.8196514,1.506858 1.8705895,3.862575 0.7789816,1.746117 1.4163306,3.187821 1.4163306,3.203786 0,0.07638 -0.166279,-6.72e-4 -0.763938,-0.354002 z"
       id="path11"
       transform="matrix(0.26458333,0,0,0.26458333,60.558271,48.253915)" /><g
       id="g11"
       transform="matrix(-1.9139739e-6,-0.00103282,0.00103282,-1.9139739e-6,63.139535,56.653409)"><g
         id="layer101"
         fill="#0bbd0b"
         stroke="none"><path
           d="m 2050,4059 c -270,-29 -493,-254 -519,-524 -23,-229 79,-441 272,-566 88,-57 165,-80 287,-86 187,-9 315,40 445,171 124,124 175,247 175,416 0,359 -301,627 -660,589 z m 185,-154 c 219,-57 365,-283 327,-505 -60,-353 -483,-500 -744,-260 -227,207 -186,566 82,723 94,54 223,71 335,42 z"
           id="path1-3" /></g><g
         id="layer102"
         fill="#0891f8"
         stroke="none"><path
           d="m 2208,4290 c -239,-38 -442,-143 -605,-313 -134,-140 -211,-278 -265,-474 -18,-64 -21,-107 -22,-243 -1,-142 2,-177 23,-254 50,-191 126,-328 260,-468 219,-229 496,-341 805,-325 266,14 499,118 687,306 122,122 200,246 253,406 191,569 -146,1189 -729,1340 -112,29 -306,41 -407,25 z m 312,-151 c 327,-59 606,-314 700,-639 31,-107 38,-307 15,-421 -55,-273 -233,-507 -480,-631 -137,-69 -337,-106 -486,-89 -126,14 -202,36 -314,91 -371,179 -570,594 -479,1000 18,82 54,180 65,180 5,0 9,6 9,13 0,24 58,133 103,192 46,61 126,127 207,172 25,13 63,35 85,49 60,36 215,83 308,93 88,9 179,6 267,-10 z"
           id="path2-6" /></g><g
         id="layer103"
         fill="#082693"
         stroke="none"><path
           d="m 1220,5730 c 0,-46 2,-50 24,-50 14,0 38,-11 53,-24 l 28,-24 3,-262 4,-261 61,3 62,3 3,255 c 2,214 0,262 -13,297 -28,72 -96,113 -187,113 h -38 z"
           id="path3" /><path
           d="m 1644,5632 c -45,-28 -73,-73 -86,-136 -28,-133 50,-256 162,-256 35,0 105,33 113,52 3,7 6,-33 6,-89 l 1,-103 h 65 65 v 270 270 h -65 c -59,0 -65,-2 -65,-21 0,-20 0,-20 -32,2 -44,32 -123,37 -164,11 z m 171,-97 c 22,-21 25,-33 25,-90 0,-57 -3,-69 -25,-90 -31,-32 -66,-32 -102,-1 -25,22 -28,30 -28,89 0,55 4,69 24,91 32,34 74,34 106,1 z"
           id="path4" /><path
           d="m 2173,5634 c -129,-48 -165,-234 -64,-335 82,-83 240,-78 314,10 29,35 47,88 47,139 v 32 h -145 c -160,0 -167,3 -121,57 22,25 30,28 88,27 41,0 79,-8 111,-22 l 47,-21 v 48 c 0,46 -1,48 -37,60 -63,20 -192,23 -240,5 z m 167,-248 c 0,-8 -8,-24 -19,-37 -27,-34 -86,-32 -117,5 -13,15 -24,31 -24,37 0,5 36,9 80,9 62,0 80,-3 80,-14 z"
           id="path5" /><path
           d="m 3225,5635 c -130,-46 -168,-235 -66,-336 107,-107 322,-62 360,76 51,185 -108,326 -294,260 z m 146,-101 c 20,-22 24,-36 24,-89 0,-53 -4,-67 -24,-89 -16,-17 -35,-26 -56,-26 -21,0 -40,9 -56,26 -20,22 -24,36 -24,89 0,53 4,67 24,89 16,17 35,26 56,26 21,0 40,-9 56,-26 z"
           id="path6" /><path
           d="m 3795,5634 c -16,-8 -38,-23 -47,-31 -17,-15 -18,-14 -18,10 0,26 -2,27 -60,27 h -60 v -270 -270 h 60 60 v 101 100 l 37,-28 c 48,-36 135,-40 180,-7 113,84 102,307 -17,369 -37,19 -97,19 -135,-1 z m 76,-100 c 20,-22 24,-36 24,-91 0,-59 -3,-67 -28,-89 -52,-45 -111,-21 -127,51 -26,114 63,202 131,129 z"
           id="path7" /><path
           d="m 4215,5635 c -130,-46 -168,-235 -66,-336 107,-107 322,-62 360,76 51,185 -108,326 -294,260 z m 146,-101 c 20,-22 24,-36 24,-89 0,-53 -4,-67 -24,-89 -16,-17 -35,-26 -56,-26 -21,0 -40,9 -56,26 -20,22 -24,36 -24,89 0,53 4,67 24,89 16,17 35,26 56,26 21,0 40,-9 56,-26 z"
           id="path8" /><path
           d="m 2580,5380 v -260 h 133 c 182,1 235,22 259,102 16,53 -2,109 -46,145 l -34,27 24,19 c 20,16 124,202 124,222 0,3 -30,5 -67,3 l -68,-3 -42,-80 c -47,-91 -72,-115 -119,-115 h -33 l -3,98 -3,97 -62,3 -63,3 z m 245,-50 c 9,-7 15,-29 15,-51 0,-46 -18,-59 -84,-59 h -46 v 66 67 l 50,-5 c 27,-3 56,-11 65,-18 z"
           id="path9" /><path
           d="m 4670,5627 c -44,-22 -60,-70 -60,-184 v -103 h -30 c -29,0 -30,-2 -30,-45 0,-43 1,-45 30,-45 30,0 30,-1 30,-55 v -55 h 65 65 v 55 55 h 60 60 v 45 45 h -60 -61 l 3,103 3,102 53,3 52,3 v 45 44 h -77 c -43,0 -89,-6 -103,-13 z"
           id="path10-7" /></g><g
         id="layer104"
         fill="#ffa500"
         stroke="none"><path
           d="m 2540,4563 c -193,-19 -403,-79 -580,-165 -69,-34 -131,-62 -138,-64 -18,-4 -134,-98 -230,-189 -95,-89 -220,-241 -301,-365 -75,-115 -168,-299 -174,-346 -3,-22 -15,-84 -28,-139 -21,-89 -24,-124 -23,-315 0,-197 2,-224 26,-325 99,-413 323,-737 674,-974 385,-260 878,-345 1338,-231 520,128 944,499 1131,989 68,179 96,338 96,546 1,399 -142,760 -416,1055 -271,293 -632,473 -1040,520 -85,9 -257,11 -335,3 z m 325,-148 c 221,-18 480,-113 690,-252 126,-84 307,-264 388,-384 108,-163 181,-336 223,-529 14,-66 19,-127 18,-270 0,-164 -3,-198 -26,-296 -68,-289 -202,-521 -418,-727 -459,-436 -1160,-538 -1730,-252 -404,203 -686,565 -782,1003 -31,141 -31,405 0,549 62,285 216,569 408,754 141,135 377,271 583,338 213,69 388,87 646,66 z"
           id="path11-5" /></g><g
         id="layer105"
         fill="#ff0000"
         stroke="none"><path
           d="M 2845,4853 C 2495,4830 2103,4696 1802,4496 1277,4147 939,3613 843,2980 c -23,-157 -23,-454 0,-608 74,-475 281,-892 607,-1222 327,-330 719,-536 1185,-622 158,-29 554,-32 705,-5 491,86 908,305 1239,652 558,586 745,1419 489,2190 -214,648 -719,1157 -1363,1374 -285,96 -568,133 -860,114 z m 491,-166 c 344,-65 633,-190 893,-385 103,-78 278,-248 360,-351 382,-480 528,-1087 406,-1683 C 4760,1117 3600,407 2460,716 c -484,131 -920,459 -1192,896 -148,238 -251,535 -287,828 -16,122 -13,371 4,502 36,272 125,534 259,762 317,538 850,895 1478,991 123,19 499,14 614,-8 z"
           id="path12" /></g></g></g></svg>
