<?xml version="1.0" encoding="UTF-8" standalone="no"?>
<!-- Created with Inkscape (http://www.inkscape.org/) -->

<svg
   version="1.1"
   id="svg4512"
   width="48"
   height="48"
   viewBox="0 0 48 48"
   xmlns="http://www.w3.org/2000/svg"
   xmlns:svg="http://www.w3.org/2000/svg">
  <defs
     id="defs4516" />
  <g
     id="g4518">
    <path
       style="display:inline;fill:#000000"
       d="M 17.047168,42.69508 C 9.2456146,40.207988 2.9617764,29.785248 4.2983195,21.549098 5.7195583,12.79103 10.809798,7.1130315 19.268109,4.8507782 34.017444,0.90593262 47.150816,14.674742 42.950022,29.678504 39.934351,40.449425 28.316364,46.287639 17.047168,42.69508 Z M 30.32881,38.635974 C 40.603427,34.342966 43.108165,20.872871 35.117647,12.882353 23.882552,1.6472575 5.4718889,11.710472 8.4284998,27.470563 10.194692,36.885175 21.150666,42.470848 30.32881,38.635974 Z M 20,28 c -1.1,-1.1 -2,-2.9 -2,-4 0,-2.575564 3.424436,-6 6,-6 2.575564,0 6,3.424436 6,6 0,1.1 -0.9,2.9 -2,4 -1.1,1.1 -2.9,2 -4,2 -1.1,0 -2.9,-0.9 -4,-2 z"
       id="path4522" />
  </g>
</svg>
