<?xml version="1.0" encoding="UTF-8" standalone="no"?>
<!-- Created with Inkscape (http://www.inkscape.org/) -->

<svg
   version="1.1"
   id="svg2817"
   width="512"
   height="512"
   viewBox="0 0 512 512"
   xmlns="http://www.w3.org/2000/svg"
   xmlns:svg="http://www.w3.org/2000/svg">
  <defs
     id="defs2821" />
  <g
     id="g2823">
    <path
       style="display:inline;fill:#000000"
       d="M 242,501.39947 C 202.37433,497.93437 173.77416,489.94722 142.41458,473.5883 95.915557,449.33181 59.46909,411.97255 35.991603,364.5 23.731771,339.71006 16.172975,315.15761 12.296617,287.53406 10.366318,273.77843 10.145987,240.08882 11.900721,227 21.74584,153.56383 60.473416,91.21981 121.5,50.566032 135.00429,41.569948 160.60836,29.06023 176.68277,23.604665 203.7001,14.435132 225.79044,10.792359 255,10.689881 c 32.7793,-0.115001 57.6402,4.320177 88.5,15.788379 12.44934,4.626458 35.12879,16.223527 46.91072,23.987661 C 451.26136,90.565675 490.78877,154.3602 500.10195,227.5 c 1.73911,13.65789 1.51939,46.27218 -0.40445,60.03406 -9.99546,71.50096 -49.00589,133.84107 -108.52766,173.43122 -30.16316,20.06264 -66.84876,33.78631 -103.14028,38.58361 -10.91546,1.4429 -38.16394,2.53839 -46.02956,1.85058 z m 38.5,-21.42155 C 324.535,475.05738 367.87271,456.41455 401.32943,428 l 6.47598,-5.5 -10.63986,-10.75422 -10.63986,-10.75423 7.23293,-7.23293 7.23293,-7.23293 10.75423,10.66928 c 10.08233,10.00271 10.84794,10.55574 12.25422,8.85184 16.12371,-19.53596 24.12956,-31.26605 32.55591,-47.70056 13.1318,-25.61187 21.53468,-55.16166 24.05608,-84.59625 L 481.27586,266 H 466.13793 451 v -10 -10 h 15.11749 15.11749 l -0.66584,-7.75 c -2.55073,-29.68951 -10.84749,-58.91818 -24.01323,-84.59625 -8.42635,-16.43451 -16.4322,-28.1646 -32.55591,-47.70056 -1.40628,-1.7039 -2.17189,-1.15087 -12.25422,8.85184 l -10.75423,10.66928 -7.23293,-7.23293 -7.23293,-7.23293 10.72277,-10.75613 10.72277,-10.756117 -8.23562,-6.830913 C 364.39705,53.354219 320.20421,35.367336 273.75,31.388011 L 266,30.724137 V 45.862068 61 H 256 246 V 45.862068 30.724137 l -7.75,0.663874 C 208.81541,33.909415 179.26562,42.312293 153.65375,55.444087 137.21924,63.870443 125.48915,71.876295 105.95319,88 c -1.7039,1.406285 -1.15087,2.171889 8.85184,12.25422 l 10.66928,10.75423 -7.23293,7.23293 -7.23293,7.23293 L 100.25422,114.83445 89.5,104.19459 84,110.67057 c -23.404454,27.55759 -41.428032,64.35896 -48.414801,98.85557 -1.905612,9.40881 -4.537673,28.56199 -4.565676,33.22386 L 31,246 h 15 15 v 10 10 H 46 31 l 0.01952,3.25 c 0.028,4.66187 2.660064,23.81505 4.565676,33.22386 6.986772,34.49661 25.01035,71.29798 48.414804,98.85557 l 5.5,6.47598 10.75422,-10.63986 10.75423,-10.63986 7.23293,7.23293 7.23293,7.23293 -10.58566,10.75423 -10.58566,10.75422 4.0985,3.63924 c 7.7236,6.85813 22.10241,17.07367 33.75595,23.9822 25.93294,15.37373 54.20746,25.08575 85.34256,29.31434 12.05792,1.63763 40.58475,1.92943 53,0.54214 z M 195,409.5 V 399 h 10 10 v 10.5 10.5 h -10 -10 z m 51,0 V 399 h 10 10 v 10.5 10.5 h -10 -10 z m 51,0 V 399 h 10 10 V 409.5 420 H 307 297 Z M 247.5,274.4306 C 239.81943,270.44418 236,264.32293 236,256 c 0,-6.30129 1.78352,-10.57442 6.13076,-14.68867 C 246.39693,237.27381 249.79785,236 256.31142,236 h 5.18123 l 50.01806,-50.01071 50.01807,-50.01071 7.22576,7.27431 7.22576,7.27431 -49.99015,49.98265 L 276,250.4925 v 5.18865 c 0,2.85376 -0.4776,6.45545 -1.06133,8.00375 -1.43949,3.81811 -6.73496,9.25163 -10.65655,10.93434 -4.29057,1.84104 -13.06152,1.74245 -16.78212,-0.18864 z"
       id="path2827" />
  </g>
</svg>
