<?xml version="1.0" encoding="UTF-8" standalone="no"?>
<!-- Created with Inkscape (http://www.inkscape.org/) -->

<svg
   version="1.1"
   id="svg2470"
   width="512"
   height="512"
   viewBox="0 0 512 512"
   sodipodi:docname="evaluate.svg"
   inkscape:version="1.1.1 (eb90963e84, 2021-10-02)"
   xmlns:inkscape="http://www.inkscape.org/namespaces/inkscape"
   xmlns:sodipodi="http://sodipodi.sourceforge.net/DTD/sodipodi-0.dtd"
   xmlns="http://www.w3.org/2000/svg"
   xmlns:svg="http://www.w3.org/2000/svg">
  <defs
     id="defs2474" />
  <sodipodi:namedview
     id="namedview2472"
     pagecolor="#ffffff"
     bordercolor="#666666"
     borderopacity="1.0"
     inkscape:pageshadow="2"
     inkscape:pageopacity="0.0"
     inkscape:pagecheckerboard="0"
     showgrid="false"
     inkscape:zoom="1.6484375"
     inkscape:cx="256.30332"
     inkscape:cy="256.30332"
     inkscape:window-width="1848"
     inkscape:window-height="1016"
     inkscape:window-x="72"
     inkscape:window-y="27"
     inkscape:window-maximized="1"
     inkscape:current-layer="g2476" />
  <g
     inkscape:groupmode="layer"
     inkscape:label="Image"
     id="g2476">
    <path
       style="display:inline;fill:#000000"
       d="m 51,438 c -1.984842,-1.98484 -2,-3.33333 -2,-177.92742 V 84.14516 L 51.634859,82.07258 54.269717,80 h 134.910593 134.9106 l 2.45454,2.454545 L 329,84.909091 V 120.5 156.09091 l -2.45455,2.45454 c -3.14263,3.14264 -7.48888,3.20812 -10.35617,0.15603 -2.10187,-2.23734 -2.16641,-3.10909 -2.42432,-32.75 L 313.5,95.5 188.75,95.24611 64,94.992219 V 259.99611 425 h 125 125 v -36.06574 c 0,-23.5096 0.36931,-36.75581 1.0608,-38.04787 2.56695,-4.79639 10.49772,-4.34551 12.80948,0.72825 0.78021,1.71238 1.12972,15.00863 1.12972,42.97787 v 40.4984 l -2.45455,2.45454 L 324.09091,440 H 188.54545 C 54.333333,440 52.980326,439.98033 51,438 Z M 221.17431,411.68555 C 219.97844,410.4126 219,408.13285 219,406.61944 c 0,-3.76074 8.70194,-56.43469 9.89751,-59.91092 0.52804,-1.53531 34.36764,-53.51031 75.19912,-115.5 C 344.9281,169.21883 385.27075,107.925 393.74696,95 c 8.47621,-12.925 16.13669,-24.0625 17.02329,-24.75 3.43867,-2.666449 6.68492,-1.166873 27.91155,12.893514 22.98747,15.226749 23.95304,16.244777 21.06735,22.212006 -0.83635,1.72946 -11.2987,17.99448 -23.24967,36.14448 -11.95097,18.15 -51.82106,78.675 -88.6002,134.5 l -66.87116,101.5 -26.1156,18.25 c -27.74021,19.38531 -29.64993,20.28732 -33.73821,15.93555 z m 28.91498,-31.12664 12.0423,-8.44109 -9.7628,-6.52858 c -5.36954,-3.59071 -9.91738,-6.37398 -10.10632,-6.18504 -0.25476,0.25475 -5.19562,27.85757 -5.25286,29.3458 -0.0318,0.82805 2.26273,-0.60891 13.07968,-8.19109 z M 343.9097,254.49575 c 52.68724,-79.91252 69.60197,-106.28028 68.73725,-107.15201 -0.63082,-0.63595 -6.36861,-4.52791 -12.75063,-8.64881 l -11.60369,-7.49255 -70.21826,106.5688 c -51.45832,78.09724 -69.86508,106.77725 -68.89631,107.34904 0.72707,0.42913 6.27194,4.14781 12.32194,8.26372 6.05,4.11591 11.34323,7.39889 11.76274,7.29552 0.41951,-0.10338 32.21064,-47.88604 70.64696,-106.18371 z m 88.77063,-134.91243 10.18033,-15.36474 -12.82781,-8.545229 -12.82781,-8.545224 -10.25619,15.448923 c -5.64091,8.49691 -9.92889,15.78059 -9.52884,16.18594 1.02494,1.03854 23.97206,16.12175 24.57999,16.1565 0.275,0.0157 5.08115,-6.88556 10.68033,-15.33617 z M 92.923077,237.07692 c -3.45576,-3.45576 -3.671894,-5.85524 -0.850497,-9.44206 L 94.14516,225 H 169 243.85484 l 2.07258,2.63486 c 1.13992,1.44917 2.07258,3.228 2.07258,3.95295 0,2.64421 -2.27987,6.21868 -4.65732,7.30192 C 241.62836,239.67082 219.40186,240 168.37602,240 H 95.846154 Z M 94,176.29056 c -5.266002,-1.93627 -6.909855,-9.2518 -2.895482,-12.88557 2.022629,-1.83087 4.920376,-1.9157 74.471482,-2.18032 79.01741,-0.30064 78.60717,-0.32736 79.99682,5.20943 1.00184,3.99167 -0.32561,7.3867 -3.53765,9.04771 -2.54962,1.31846 -12.3815,1.5078 -74.73551,1.43924 C 127.80985,176.87763 94.825,176.59391 94,176.29056 Z"
       id="path2480" />
  </g>
</svg>
