<?xml version="1.0" encoding="UTF-8"?>
<!-- Created with Inkscape (http://www.inkscape.org/) -->
<svg width="300" height="300" version="1.1" xmlns="http://www.w3.org/2000/svg" xmlns:cc="http://creativecommons.org/ns#" xmlns:dc="http://purl.org/dc/elements/1.1/" xmlns:rdf="http://www.w3.org/1999/02/22-rdf-syntax-ns#">
 <metadata>
  <rdf:RDF>
   <cc:Work rdf:about="">
    <dc:format>image/svg+xml</dc:format>
    <dc:type rdf:resource="http://purl.org/dc/dcmitype/StillImage"/>
   </cc:Work>
  </rdf:RDF>
 </metadata>
 <g transform="translate(0 -752.36)">
  <path d="m149.98 757.32c-1.5001 9.4e-4 -2.9885 0.3975-4.3125 1.2188l-114.22 70.906c-2.4102 1.4938-3.875 4.1625-3.875 7v131.84c0 2.8425 1.4648 5.5 3.875 7l114.22 70.906c0.0546 0.029 0.10013 0.06 0.15625 0.094 0.061 0.035 0.1255 0.086 0.1875 0.125 0.13187 0.069 0.2735 0.094 0.40625 0.1562 0.13525 0.069 0.27 0.165 0.40625 0.2188 0.21288 0.092 0.438 0.1509 0.65625 0.2187 0.12787 0.043 0.24562 0.09 0.375 0.125 0.24562 0.067 0.4995 0.1124 0.75 0.1563 0.10687 0.015 0.20512 0.047 0.3125 0.062 0.35738 0.049 0.70263 0.062 1.0625 0.062 0.74649 0 1.4938-0.1025 2.2188-0.3125h0.0312c0.28087-0.078 0.54-0.1684 0.8125-0.2813 0.0813-0.03 0.16625-0.06 0.25-0.094 0.22375-0.099 0.43625-0.2217 0.65625-0.3437 0.12-0.068 0.2575-0.1186 0.375-0.1875l0.21875-0.1563 114-70.75c2.4175-1.505 3.885-4.1488 3.875-7l-0.21875-66.094c-0.01-2.9762-1.6138-5.715-4.2188-7.1562-2.6025-1.445-5.7825-1.3538-8.3125 0.21875l-48.625 30.281-37.469-23.219 94.969-59.125c2.41-1.4988 3.8775-4.13 3.875-6.9688-5e-3 -2.8375-1.4938-5.475-3.9062-6.9688l-114.19-70.718c-1.3259-0.82-2.8437-1.2197-4.3438-1.2188zm-106.28 93.688 82.719 51.375-82.719 51.344v-102.72zm114.31 61 37.5 23.219-50.062 31.156c-2.4145 1.5-3.853 4.1275-3.8438 6.9688l0.125 51.094-90.375-56.156 90.625-56.25 3.6875 2.2812c1.3266 0.82125 2.811 1.2188 4.3125 1.2188 1.5049 0 3.015-0.38875 4.3438-1.2188l3.6875-2.3125zm97.844 4.9688 0.125 46.781-97.812 60.75-0.15625-46.625 97.844-60.906z"/>
  <rect x="48.487" y="833.17" width="3.5355" height="1.0102" opacity="0" stroke-width="12.094"/>
  <rect x="48.487" y="770.54" width="98.995" height="63.64" opacity="0" stroke-width="12.094"/>
  <path d="m52.023 834.18 95.459-63.64 107.08 65.155-102.53 61.114z" fill="#fd8000" stroke="#000" stroke-width="1px"/>
 </g>
</svg>
