<?xml version="1.0" encoding="UTF-8" standalone="no"?>
<!-- Created with Inkscape (http://www.inkscape.org/) -->

<svg
   version="1.1"
   id="svg4337"
   width="512"
   height="512"
   viewBox="0 0 512 512"
   xmlns="http://www.w3.org/2000/svg"
   xmlns:svg="http://www.w3.org/2000/svg">
  <defs
     id="defs4341" />
  <g
     id="g4343">
    <path
       style="display:inline;fill:#000000"
       d="m 99.908937,510.12305 c -14.722606,-4.7616 -23.864231,-16.04227 -26.027671,-32.11788 -0.654115,-4.86046 -0.914484,-20.17039 -0.667298,-39.23777 0.488628,-37.69164 0.783185,-38.94746 11.69458,-49.85885 7.102354,-7.10236 13.31647,-10.20624 23.006942,-11.49173 L 113,376.74234 V 356.07472 335.4071 l -7.04075,-1.20736 C 102.08683,333.5357 96.70179,331.8691 93.992489,330.49619 91.283188,329.12329 88.858948,328 88.605289,328 c -0.253659,0 -0.606119,6.72178 -0.783244,14.93729 L 87.5,357.87457 l -2.958474,3.08504 c -1.627161,1.69676 -4.552161,3.55497 -6.5,4.12935 C 75.862795,365.73142 65.072294,366.01143 50,365.81664 27.332991,365.52369 25.300571,365.35037 22.834403,363.5 16.716759,358.90992 16.5,357.80335 16.5,331.1623 v -24.33771 l 2.360784,-1.91229 C 21.921162,302.43331 26.472681,302.47268 29,305 c 1.878788,1.87879 2,3.33333 2,24 v 22 H 52 73 V 293 235 H 52 31 v 22.92742 22.92742 l -2.634859,2.07258 c -3.285186,2.58413 -6.446212,2.63745 -9.504357,0.16032 L 16.5,281.17549 v -25.51522 c 0,-24.21077 0.105408,-25.65636 2.061789,-28.27596 1.133983,-1.5184 3.304482,-3.68854 4.82333,-4.82252 2.624873,-1.95975 4.059205,-2.06179 28.982191,-2.06179 29.079935,0 29.590759,0.10321 33.676693,6.80433 1.698313,2.78532 1.949001,5.08971 1.952259,17.94567 0.0021,8.1125 0.203016,14.75 0.446578,14.75 0.243562,0 1.988554,-0.91199 3.87776,-2.02665 7.59495,-4.48113 13.89635,-4.93751 68.4294,-4.95599 L 212,253 v -12.44095 -12.44094 l -34.80523,-0.30906 -34.80523,-0.30905 -7.64075,-3.77793 c -13.27692,-6.5647 -19.41232,-16.12974 -21.1496,-32.97207 -0.99902,-9.6851 -1.02374,-9.75 -3.71336,-9.75 -8.15573,0 -23.034791,-7.56661 -28.187183,-14.33434 -8.661761,-11.37732 -10.881516,-28.8932 -5.501561,-43.41232 4.153453,-11.2091 16.844348,-20.96352 30.361214,-23.336106 l 6.0583,-1.063398 1.07545,-9.690511 c 0.66564,-5.997805 1.92923,-11.506831 3.31595,-14.456956 3.48213,-7.407911 10.22182,-14.201685 17.7831,-17.925795 L 141.45185,53.5 178.22592,53.20397 215,52.90794 v -3.348635 c 0,-8.702152 6.24866,-21.424688 13.83738,-28.173477 3.44706,-3.065535 11.64218,-7.013338 16.41262,-7.90639 3.57891,-0.669991 3.75,-0.881509 3.75,-4.6361834 0,-2.84368 0.68036,-4.6145222 2.45455,-6.3887091 C 256.54805,-2.6389606 264,1.2106959 264,8.9354934 c 0,3.5792806 0.30538,4.0935066 2.75,4.6306816 9.27521,2.038114 16.85398,6.995536 22.63778,14.807815 C 293.23658,33.572627 297,44.04647 297,49.559305 v 3.348635 l 36.75,0.29603 36.75,0.29603 5.67515,2.660407 c 7.5669,3.547231 13.83838,9.511581 17.78267,16.911832 2.59519,4.86907 3.45828,8.054966 4.3438,16.034082 1.05584,9.513773 1.21862,9.978636 3.65174,10.428314 14.67258,2.711725 22.22209,6.347575 28.56373,13.756365 9.03307,10.55311 10.8981,33.06253 3.88594,46.90036 -5.3353,10.52871 -18.01688,19.29404 -29.65174,20.49486 l -5.36936,0.55417 -0.99341,9.6298 c -1.72406,16.71237 -7.89591,26.30474 -21.13731,32.85188 L 369.61046,227.5 334.80523,227.80905 300,228.11811 v 12.40862 12.40863 l 55.25,0.28232 55.25,0.28232 6,2.95205 c 3.3,1.62363 6.3375,3.12363 6.75,3.33333 0.4125,0.20971 0.75168,-6.29371 0.75374,-14.45205 0.003,-12.93856 0.25263,-15.24154 1.95226,-18.029 4.08593,-6.70112 4.59675,-6.80433 33.67669,-6.80433 24.92299,0 26.35732,0.10204 28.98219,2.06179 6.7994,5.07648 6.85372,5.30772 7.20418,30.66561 0.17548,12.69738 0.0515,24.15204 -0.27543,25.45481 -0.83365,3.3215 -4.11021,6.31779 -6.90877,6.31779 -1.30083,0 -3.55083,-0.93266 -5,-2.07258 L 481,280.85484 V 257.92742 235 h -21 -21 v 58 58 h 21 21 v -22 c 0,-20.66667 0.12121,-22.12121 2,-24 2.52648,-2.52648 7.07779,-2.56687 10.13922,-0.09 2.34089,1.89393 2.36333,2.10523 2.66358,25.07522 0.28783,22.02031 0.19613,23.38552 -1.8554,27.62342 C 490.12504,365.5046 488.12133,366 460.00772,366 433.95401,366 431.68748,365.62586 427,360.55133 c -2.39782,-2.59581 -2.51316,-3.31631 -2.82205,-17.62888 C 424.00083,334.7151 423.64837,328 423.39471,328 c -0.25366,0 -2.6779,1.12329 -5.3872,2.49619 -2.7093,1.37291 -8.09434,3.03951 -11.96676,3.70355 L 399,335.4071 V 356 376.5929 l 7.08658,1.21522 c 18.43963,3.16204 29.6754,14.24156 31.91345,31.46962 1.24188,9.5598 1.22654,61.38135 -0.0207,70.00726 -2.21694,15.33201 -12.29188,26.91298 -27.11874,31.17251 -4.9001,1.40773 -11.58619,1.58226 -51,1.33131 -45.30093,-0.28844 -45.36845,-0.29199 -51.36056,-2.70131 -8.24153,-3.31377 -17.30447,-12.39162 -20.55369,-20.58751 -2.24074,-5.65208 -2.39952,-7.46416 -2.73829,-31.25 L 284.8484,432 H 256 227.1516 l -0.35962,25.25 c -0.33877,23.78584 -0.49755,25.59792 -2.73829,31.25 -3.24922,8.19589 -12.31216,17.27374 -20.55369,20.58751 l -6,2.41249 -46,0.21566 c -42.0059,0.19693 -46.48546,0.0587 -51.591063,-1.59261 z m 98.599643,-14.98803 c 5.43576,-2.46941 10.08833,-8.03857 11.94849,-14.30243 C 213.382,470.98331 220.34621,472 149.95469,472 H 87.909374 l 0.609255,3.75 c 1.656223,10.19415 6.579521,17.09804 14.106141,19.78089 3.06937,1.09408 13.0251,1.38588 47.87523,1.40326 40.45267,0.0202 44.32318,-0.12489 48.00858,-1.79913 z m 209.8122,0.79286 c 7.7796,-2.16028 13.46206,-9.7233 15.16059,-20.17788 l 0.60926,-3.75 h -62.04532 c -70.33099,0 -63.41999,-0.99204 -60.54449,8.69082 1.88033,6.33174 7.69293,12.95795 12.99918,14.8187 5.05108,1.77128 87.62268,2.13947 93.82078,0.41836 z M 212,444.49237 V 431.98474 L 150.25,432.24237 88.5,432.5 88.219221,444.75 87.938442,457 H 149.96922 212 Z M 423.78078,444.75 423.5,432.5 361.75,432.24237 300,431.98474 V 444.49237 457 h 62.03078 62.03078 z m -212.27833,-32 c -1.52875,-9.64913 -7.49406,-17.23248 -15.42473,-19.60857 -2.60591,-0.78075 -17.51876,-1.13449 -47.19374,-1.11947 -39.80067,0.0202 -43.71507,0.17237 -47.39256,1.84302 -7.182265,3.26284 -11.274094,9.38675 -12.952525,19.38502 L 87.909374,417 h 62.133206 62.13322 z m 74.00857,-1 c 2.2612,-16.99077 11.1569,-28.36649 25.72888,-32.9018 C 316.51642,377.20597 320.90156,377 350.58909,377 H 384 V 322.5 268 H 256 128 v 54.5 54.5 h 32.91091 c 29.406,0 33.55441,0.20028 38.95342,1.88064 14.26375,4.43938 24.17794,16.85261 26.65142,33.36936 l 0.71134,4.75 h 28.79262 28.79261 z m -95.62595,-64.12962 c -9.99788,-3.57285 -14.99628,-10.82796 -15.68761,-22.77035 -0.34667,-5.98854 -0.0307,-8.99814 1.31445,-12.52039 2.37554,-6.22027 7.90084,-12.1361 13.98809,-14.97679 l 5,-2.33331 61.5,0.0122 c 59.69385,0.0118 61.63216,0.072 66,2.04681 10.05133,4.54457 15.98046,13.79103 15.98046,24.92146 0,11.13043 -5.92913,20.37689 -15.98046,24.92146 -4.1231,1.86421 -6.53108,2.03646 -28.75,2.05658 -22.9325,0.0208 -24.35866,-0.0867 -26.25,-1.97804 -2.33334,-2.33334 -2.60505,-6.78893 -0.58292,-9.55887 1.31345,-1.79918 3.12688,-1.97769 24.79737,-2.44113 20.10462,-0.42995 23.75698,-0.74713 26.06899,-2.26393 8.06945,-5.29397 8.06773,-16.18374 -0.003,-21.47214 C 314.78544,309.6294 310.29015,309.5 256,309.5 c -54.29015,0 -58.78544,0.1294 -61.28005,1.76393 -8.07167,5.28876 -8.0728,16.17974 -0.002,21.47214 2.31293,1.51674 5.96612,1.834 26.06903,2.26393 21.66938,0.46343 23.48278,0.64196 24.79619,2.44113 2.0221,2.76996 1.75038,7.22554 -0.58295,9.55887 -1.89481,1.89481 -3.30176,1.99769 -26.75,1.95611 -17.59617,-0.0312 -25.79487,-0.41729 -28.36493,-1.33573 z M 423.34498,413.25 c -0.93277,-6.60875 -5.44196,-14.47109 -10.17995,-17.75 l -4.33496,-3 -44.66504,-0.30578 c -31.59564,-0.21631 -45.83547,0.0317 -48.66503,0.84748 -8.32887,2.40135 -13.48544,9.00992 -15.02117,19.25088 L 299.77291,417 h 62.05068 62.05067 z M 113,293.86408 v -26.13593 l -4.5032,0.61723 c -14.117136,1.93497 -21.69091,12.96426 -20.160039,29.358 0.704673,7.54617 3.476912,13.28998 8.125797,16.83586 3.582922,2.73283 10.319032,5.27588 14.287442,5.39386 L 113,320 Z m 296,23.94007 c 4.64499,-1.70179 9.63536,-5.81063 11.85596,-9.76165 4.43296,-7.88739 3.76974,-23.44767 -1.32861,-31.17135 -2.78175,-4.21418 -9.67782,-7.90836 -16.11791,-8.63425 L 399,267.7399 v 26.17536 26.17537 l 3.75,-0.68528 c 2.0625,-0.3769 4.875,-1.09744 6.25,-1.6012 z M 285,240.5 V 228 h -29 -29 v 12.5 12.5 h 29 29 z m 83.25203,-28.92675 c 5.76064,-2.05577 10.3062,-6.03751 12.8956,-11.29606 L 383.5,195.5 V 140 c 0,-55.31576 -0.007,-55.513691 -2.20615,-59.624209 -2.49533,-4.664805 -7.25421,-9.033675 -12.01173,-11.027329 -4.76697,-1.997612 -221.79727,-1.997612 -226.56424,0 -4.75752,1.993654 -9.5164,6.362524 -12.01173,11.027329 C 128.50732,84.486309 128.5,84.68424 128.5,140 v 55.5 l 2.35237,4.77719 c 2.5894,5.25855 7.13496,9.24029 12.8956,11.29606 5.54228,1.97784 218.96178,1.97784 224.50406,0 z M 218.07258,183.36514 c -2.36432,-3.00575 -2.52356,-4.28123 -0.96231,-7.70782 2.01264,-4.41725 4.04804,-4.65732 39.48644,-4.65732 27.44782,0 34.01391,0.2644 36.33177,1.46301 4.5922,2.37472 5.36995,6.61658 1.99894,10.90213 L 292.85484,186 H 256.5 220.14516 Z m -27.07905,-37.23961 c -12.62688,-4.14255 -21.19328,-17.02368 -19.5516,-29.39933 2.93749,-22.143824 28.43958,-32.145464 44.93705,-17.623815 7.06864,6.222075 9.0864,10.751635 9.0864,20.397615 0,6.31295 -0.46269,8.87188 -2.19407,12.13445 -2.82313,5.31986 -7.42724,9.89378 -12.63686,12.55401 -4.47901,2.28716 -15.31606,3.35595 -19.64092,1.93707 z m 16.25051,-18.13427 c 3.85415,-3.85415 3.98954,-4.20857 3.51083,-9.19061 -0.83227,-8.66157 -8.13988,-13.5207 -16.10027,-10.70574 -7.69649,2.72165 -10.84303,11.43491 -6.46065,17.89052 2.89396,4.26304 6.09238,5.98046 11.1737,5.99983 3.19027,0.0122 4.56973,-0.68734 7.87639,-3.994 z m 94.74949,18.13427 C 290.55013,142.37125 282,130.98498 282,119.5 c 0,-9.61482 6.82458,-20.269619 15.72961,-24.557674 6.6937,-3.223225 16.95754,-3.256156 23.50913,-0.07543 13.09759,6.358754 19.48528,23.864304 13.23494,36.270584 -2.38299,4.73001 -8.26126,10.66418 -12.97368,13.09709 -4.34437,2.24289 -15.22017,3.29719 -19.50647,1.89096 z m 15.61969,-17.40988 c 7.06603,-6.47554 4.98944,-17.19043 -3.99423,-20.60965 -11.54453,-4.39388 -21.8503,10.55915 -13.48481,19.56562 5.09154,5.48167 12.17505,5.90477 17.47904,1.04403 z M 113,140 c 0,-15.76933 -0.37412,-26 -0.95078,-26 -0.52293,0 -3.20014,0.4824 -5.94936,1.072 -6.403707,1.37335 -12.477809,5.78836 -15.138325,11.0034 -2.913438,5.71081 -3.648687,16.04976 -1.633983,22.97682 2.6175,8.99962 12.229108,16.76513 20.922448,16.90389 L 113,166 Z m 297.98202,23.92305 c 9.58791,-4.34903 12.38993,-9.51246 12.43956,-22.92305 0.0402,-10.86218 -1.65985,-15.36798 -7.84857,-20.80175 C 412.43423,117.44236 403.96223,114 400.3185,114 399.26097,114 399,119.14626 399,140 v 26 l 3.75,-0.022 c 2.0625,-0.0121 5.76691,-0.93682 8.23202,-2.05499 z M 282,50.181501 C 282,41.3116 276.5373,32.785268 268.78212,29.550681 263.31897,27.27207 247.75451,27.474139 242.42926,29.892813 235.25094,33.153135 230,41.834808 230,50.44282 V 53 h 26 26 z"
       id="path4347" />
  </g>
</svg>
