<?xml version="1.0" encoding="UTF-8" standalone="no"?>
<!-- Created with Inkscape (http://www.inkscape.org/) -->

<svg
   version="1.1"
   id="svg4717"
   width="512"
   height="512"
   viewBox="0 0 512 512"
   xmlns="http://www.w3.org/2000/svg"
   xmlns:svg="http://www.w3.org/2000/svg">
  <defs
     id="defs4721" />
  <g
     id="g4723">
    <path
       style="display:inline;fill:#000000"
       d="M 5.7625707,510.43461 C -0.44763179,507.06499 0,526.82926 0,256 0,37.08655 0.17303125,8.5660746 1.5169269,5.967267 4.8440516,-0.46668269 -12.931188,0 228.80112,0 c 154.22669,0 220.82125,0.32099823 222.98367,1.074823 6.74141,2.3500657 6.32058,-5.1222095 6.25239,111.019277 -0.0683,116.41762 0.39707,108.61739 -6.61909,110.93293 -2.53743,0.83743 -4.29875,0.83743 -6.83618,0 C 437.62492,220.73102 438,225.43192 438,140.53518 V 64 H 229.5 21 V 277.5 491 h 183.57692 183.57693 l 2.92307,2.92308 c 5.25272,5.25272 3.43153,14.65822 -3.29213,17.0021 -2.15791,0.75225 -59.53531,1.0628 -191.18401,1.03478 C 32.173916,511.92496 8.1554737,511.73299 5.7625707,510.43461 Z M 437.5,32 V 21.5 L 229.25,21.247642 21,20.995283 V 32 43.004717 L 229.25,42.752358 437.5,42.5 Z m 17.2706,437.2592 c -33.02557,-32.99255 -43.10187,-42.51481 -44.17918,-41.75 -20.32083,14.42649 -36.17291,21.62634 -57.59142,26.15741 -12.63416,2.67275 -38.02593,2.42549 -51.7123,-0.50356 -26.49195,-5.6696 -47.61995,-17.20987 -66.88433,-36.53273 C 214.55919,396.7259 203.13732,375.57239 197.34631,348 c -2.21382,-10.54053 -2.47569,-36.88755 -0.47708,-48 7.42263,-41.27064 34.5671,-77.58324 72.13896,-96.50413 9.30478,-4.68581 25.79952,-9.99879 36.91803,-11.89136 11.92436,-2.02974 31.74226,-2.05534 44.07378,-0.0569 63.53965,10.29705 111.01749,66.27958 110.99598,130.87863 -0.0104,31.31266 -10.4457,61.18763 -29.27643,83.81505 l -4.9723,5.97483 42.62637,42.66903 C 507.63723,493.18702 512,497.8792 512,500.73003 512,507.59666 507.63444,512 500.82674,512 c -2.9784,0 -7.11857,-3.84214 -46.05614,-42.7408 z M 345.55758,433.52288 c 18.56217,-3.01067 34.78614,-9.90201 49.74815,-21.13119 20.62005,-15.47559 34.55952,-36.52136 41.96652,-63.36089 1.75159,-6.34696 2.08266,-10.43899 2.10602,-26.0308 0.0254,-16.94209 -0.19564,-19.32337 -2.62461,-28.27735 -3.205,-11.81464 -9.81834,-26.09626 -16.68182,-36.02462 -6.06554,-8.77413 -20.15132,-22.73035 -28.85164,-28.58628 -9.36395,-6.3026 -23.46392,-12.73367 -34.7202,-15.83608 -9.28636,-2.55946 -11.32024,-2.75309 -28.5,-2.71322 -16.88395,0.0392 -19.37149,0.27855 -28.47652,2.7401 -69.20826,18.71056 -103.66327,96.39594 -70.89381,159.84364 15.88104,30.74863 46.55811,53.48088 79.37033,58.81484 4.125,0.67055 8.175,1.35144 9,1.51308 4.43681,0.86928 20.66626,0.32869 28.55758,-0.95123 z m -70.27231,-69.1734 c -1.69341,-0.68676 -30.07136,-34.7859 -31.42871,-37.76496 -2.26941,-4.9808 -0.31591,-8.45693 14.93382,-26.57389 8.09681,-9.61915 16.04622,-18.1243 17.66535,-18.90032 7.24265,-3.47132 16.14009,4.52428 13.59983,12.22135 -0.60691,1.83896 -6.01298,9.21621 -12.01348,16.3939 l -10.91,13.05034 10.95631,13.10573 c 6.02597,7.20815 11.40976,14.2984 11.96397,15.75609 1.33282,3.50557 -0.38597,8.69294 -3.75961,11.34664 -2.41046,1.89607 -7.99153,2.58822 -11.00748,1.36512 z m 37.63781,-2.27256 C 310.8599,360.01374 310,358.17188 310,355.81582 c 0,-1.83591 5.09198,-18.60646 11.3155,-37.2679 9.59245,-28.76328 11.72525,-34.2358 14.00636,-35.9389 5.70963,-4.26285 14.32619,-1.27236 16.06513,5.57562 0.77524,3.05291 -0.52761,7.76537 -10.34108,37.40417 C 328.48526,363.52467 327.69395,365 319.9073,365 c -3.1553,0 -4.71314,-0.652 -6.98422,-2.92308 z m 62.96497,1.42344 c -3.27551,-1.78021 -5.32402,-6.57052 -4.52284,-10.57641 0.36997,-1.84985 4.87712,-8.19874 11.3738,-16.02144 5.91855,-7.12656 10.89036,-13.33314 11.04848,-13.79241 0.15812,-0.45927 -4.65178,-6.75551 -10.68867,-13.99165 -6.03689,-7.23614 -11.2715,-14.08716 -11.63247,-15.22448 -2.46835,-7.77709 5.3488,-15.4302 13.13589,-12.86023 2.49755,0.82427 6.91487,5.40393 17.9277,18.5866 8.03745,9.62105 15.05801,18.76781 15.60124,20.32612 0.72189,2.0708 0.60711,3.73755 -0.42649,6.19341 -1.68569,4.00525 -28.00044,35.83177 -31.06744,37.57469 -2.8543,1.62205 -7.54245,1.52863 -10.7492,-0.2142 z M 97,448 v -10 h 37.5 37.5 v 10 10 H 134.5 97 Z M 44,405.5 V 395 H 59 74 V 405.5 416 H 59 44 Z m 52,0 V 395 h 48 48 V 405.5 416 H 144 96 Z m 1,-43 V 352 H 134.5 172 V 362.5 373 H 134.5 97 Z M 44,320 v -10 h 16 16 v 10 10 H 60 44 Z m 53,0 v -10 h 36.5 36.5 v 10 10 H 133.5 97 Z M 96,277.5 V 267 h 37 37 V 277.5 288 H 133 96 Z m -52,-42 V 225 H 75.5 107 V 235.5 246 H 75.5 44 Z m 84,0 V 225 h 32 32 v 10.5 10.5 h -32 -32 z m -31,-43 V 182 H 134.5 172 V 192.5 203 H 134.5 97 Z m 96,0 V 182 H 214.5 236 V 192.5 203 H 214.5 193 Z m -96,-43 V 139 H 134.5 172 V 149.5 160 H 134.5 97 Z m 96,0 V 139 h 74 74 V 149.5 160 H 267 193 Z M 44,106.5 V 96 H 60 76 V 106.5 117 H 60 44 Z m 53,0 V 96 H 198 299 V 106.5 117 H 198 97 Z"
       id="path4858" />
  </g>
</svg>
