<?xml version="1.0" encoding="UTF-8" standalone="no"?>
<!-- Created with Inkscape (http://www.inkscape.org/) -->

<svg
   version="1.1"
   id="svg4727"
   width="546.1333"
   height="546.1333"
   viewBox="0 0 546.1333 546.1333"
   xmlns="http://www.w3.org/2000/svg"
   xmlns:svg="http://www.w3.org/2000/svg">
  <defs
     id="defs4731" />
  <g
     id="g4733">
    <path
       style="display:inline;fill:#000000;stroke-width:1.06667"
       d="M 248.18949,545.01565 C 195.60865,539.52327 149.30979,521.51535 108.0628,490.51341 95.370805,480.9739 73.958292,460.40186 62.70221,446.93331 31.741166,409.88662 10.782793,362.88721 3.0072551,313.06665 c -3.33921994,-21.39554 -3.33921994,-58.60446 0,-80 C 10.245751,186.6871 27.707472,145.1993 55.619889,108.0628 65.159404,95.370805 85.731438,73.958292 99.199994,62.70221 136.24668,31.741166 183.24609,10.782793 233.06665,3.0072551 c 21.39554,-3.33921994 58.60446,-3.33921994 80,0 29.7798,4.6477593 54.30622,12.3782839 80.53333,25.3834319 30.16203,14.956352 52.3041,31.228319 76.33599,56.098507 39.54576,40.925196 64.19975,90.973356 73.19008,148.577456 3.33922,21.39554 3.33922,58.60446 0,80 -4.64777,29.7798 -12.37829,54.30622 -25.38344,80.53333 -35.76735,72.13097 -100.2878,124.43354 -177.78186,144.11633 -19.89917,5.0542 -38.25087,7.39906 -61.56077,7.86582 -11.44,0.22908 -25.03472,-0.0258 -30.21049,-0.56648 z m 47.8919,-32.01619 c 44.18576,-4.29969 86.33478,-20.85427 123.11858,-48.35643 13.00396,-9.72267 35.72039,-32.4391 45.44306,-45.44306 C 513.2856,354.14113 526.7811,273.65945 501.8155,197.51841 484.52373,144.78126 447.76491,98.109272 399.99998,68.245107 315.82353,15.615308 208.04836,20.842968 126.93333,81.490269 113.92937,91.212941 91.212941,113.92937 81.490269,126.93333 c -65.988024,88.25818 -65.988024,204.00846 0,292.26664 9.722672,13.00396 32.439101,35.72039 45.443061,45.44306 29.84813,22.31657 63.64207,37.64661 98.41214,44.643 23.08609,4.64535 47.81706,5.94366 70.73592,3.71343 z m -89.14807,-88.1528 c -2.48752,-0.90932 -6.44924,-4.8184 -8.10134,-7.99371 -2.24377,-4.31244 -2.24377,-283.26016 0,-287.5726 2.9695,-5.70729 6.60831,-8.04673 13.26503,-8.52823 l 6.20114,-0.44854 105.80798,70.52812 c 77.97726,51.97709 106.36183,71.43649 107.9136,73.98154 2.76204,4.53003 2.76204,11.97679 0,16.50682 -1.5517,2.54496 -29.89414,21.97634 -107.74125,73.86666 -103.57427,69.03921 -105.73428,70.41161 -110.6904,70.32904 -2.78011,-0.0463 -5.77476,-0.3474 -6.65476,-0.6691 z M 312.38907,324.79998 c 42.28681,-28.16 76.88512,-51.44 76.88512,-51.73333 0,-0.41303 -143.00918,-96.05735 -156.85556,-104.90474 l -3.08531,-1.97141 V 273.06665 379.9428 l 3.08531,-1.97141 c 1.69692,-1.08428 37.68361,-25.01141 79.97044,-53.17141 z"
       id="path4737" />
  </g>
</svg>
