<?xml version="1.0" encoding="UTF-8" standalone="no"?>
<!-- Created with Inkscape (http://www.inkscape.org/) -->

<svg
   version="1.1"
   id="svg2327"
   width="512"
   height="512"
   viewBox="0 0 512 512"
   sodipodi:docname="upload.svg"
   inkscape:version="1.1.1 (eb90963e84, 2021-10-02)"
   xmlns:inkscape="http://www.inkscape.org/namespaces/inkscape"
   xmlns:sodipodi="http://sodipodi.sourceforge.net/DTD/sodipodi-0.dtd"
   xmlns="http://www.w3.org/2000/svg"
   xmlns:svg="http://www.w3.org/2000/svg">
  <defs
     id="defs2331" />
  <sodipodi:namedview
     id="namedview2329"
     pagecolor="#ffffff"
     bordercolor="#666666"
     borderopacity="1.0"
     inkscape:pageshadow="2"
     inkscape:pageopacity="0.0"
     inkscape:pagecheckerboard="0"
     showgrid="false"
     inkscape:zoom="1.6484375"
     inkscape:cx="256.30332"
     inkscape:cy="256.30332"
     inkscape:window-width="1848"
     inkscape:window-height="1016"
     inkscape:window-x="72"
     inkscape:window-y="27"
     inkscape:window-maximized="1"
     inkscape:current-layer="g2333" />
  <g
     inkscape:groupmode="layer"
     inkscape:label="Image"
     id="g2333">
    <path
       style="display:inline;fill:#000000"
       d="M 105,432.97872 C 63.267818,427.89707 25.862971,400.08362 10.011194,362.34707 -5.3549236,325.76667 -2.3425989,285.34615 18.21898,252.21188 c 6.082594,-9.80189 20.086185,-25.01936 29.679239,-32.25194 7.876618,-5.93849 22.956957,-13.84413 32.449794,-17.0113 4.666148,-1.55681 7.116711,-2.9481 7.691351,-4.3667 12.955896,-31.98405 21.995476,-46.57207 40.859566,-65.93888 25.86594,-26.55525 56.75162,-43.459767 92.63151,-50.699569 16.58403,-3.346304 45.61566,-3.847097 62.46956,-1.077594 37.65573,6.187748 69.59722,22.482373 96.84222,49.403083 8.47725,8.37635 24.15778,27.61666 24.15778,29.64206 0,0.45398 2.70394,1.5841 6.00876,2.51138 43.35569,12.16499 78.57445,45.94798 92.87373,89.08754 5.91653,17.84961 7.5154,29.35517 6.79404,48.89037 -0.81364,22.03429 -4.24417,36.32074 -13.23077,55.09967 -18.57894,38.82362 -52.94196,65.57156 -97.24676,75.6962 l -9.699,2.21644 -139.5,0.17878 c -76.725,0.0983 -142.425,-0.17738 -146,-0.6127 z M 235,341.7634 v -49.23661 l -13.75,13.63681 c -7.5625,7.50024 -15.19015,14.35671 -16.95034,15.2366 -4.12765,2.06335 -13.52387,2.06177 -17.87503,-0.003 -11.24522,-5.33621 -15.36224,-19.09845 -8.94385,-29.89721 3.79664,-6.38774 65.30052,-67.03017 69.89134,-68.91242 4.91746,-2.01617 12.61862,-2.03421 17.41,-0.0408 4.72961,1.96772 67.47724,64.24087 70.39167,69.85937 1.35719,2.61643 2.02621,5.8329 2.02621,9.7415 0,11.02165 -7.88336,19.74688 -18.64813,20.63958 -9.14151,0.75808 -11.67908,-0.73987 -27.30187,-16.11656 L 277,292.64517 v 49.23052 49.23052 l 56.75,-0.3318 56.75,-0.33179 9,-2.76855 c 45.61563,-14.03215 73.68412,-55.20241 69.38667,-101.7749 -1.47023,-15.93327 -6.43229,-29.9857 -15.28596,-43.28945 -15.08986,-22.67441 -37.10338,-36.82329 -65.43957,-42.06034 -4.58637,-0.84765 -8.67818,-1.7509 -9.09291,-2.00721 -0.41473,-0.25632 -2.91562,-4.19567 -5.55752,-8.7541 -7.10854,-12.26533 -14.37907,-21.46973 -24.91519,-31.54233 -18.8233,-17.99519 -39.97824,-29.06446 -66.6481,-34.87346 -13.13418,-2.86077 -40.05455,-2.63056 -53.8662,0.46064 -52.93844,11.84822 -91.38402,50.02371 -104.1434,103.41176 -1.55701,6.5149 -2.84411,9.89198 -3.88336,10.18912 -0.85495,0.24445 -5.14468,0.96821 -9.53272,1.60836 -27.63181,4.03108 -49.325413,19.24808 -60.528571,42.45784 -5.883482,12.1889 -7.384959,18.99997 -7.384959,33.5 0,14.60536 1.524027,21.45469 7.472396,33.58263 9.742335,19.86335 28.149403,34.74946 49.919394,40.37068 7.02375,1.81359 11.54815,1.94006 71.25,1.99163 L 235,391 Z"
       id="path2337" />
  </g>
</svg>
